<svg width="44" height="45" viewBox="0 0 44 45" fill="none" xmlns="http://www.w3.org/2000/svg">
<rect y="0.701172" width="44" height="44" rx="4" fill="#EBE8FB"/>
<path d="M21.5291 12.5928C18.3285 12.5928 15.7176 15.2126 15.7176 18.4132C15.7176 20.3697 16.6966 22.1032 18.1865 23.1577C14.7114 24.5501 12.2461 27.9479 12.2461 31.9125C12.2514 32.1521 12.3503 32.3801 12.5217 32.5477C12.693 32.7152 12.9231 32.8091 13.1628 32.8091C13.4024 32.8091 13.6325 32.7152 13.8039 32.5477C13.9752 32.3801 14.0741 32.1521 14.0794 31.9125C14.0794 27.705 17.472 24.3142 21.6795 24.3142C23.1483 24.3142 24.5116 24.7329 25.672 25.4512C25.7748 25.515 25.8891 25.5578 26.0085 25.5774C26.1278 25.597 26.2499 25.5928 26.3676 25.5651C26.4854 25.5375 26.5965 25.4868 26.6947 25.4162C26.7928 25.3455 26.8761 25.2562 26.9396 25.1533C27.0032 25.0504 27.0459 24.936 27.0652 24.8166C27.0844 24.6972 27.08 24.5751 27.0521 24.4574C27.0241 24.3397 26.9732 24.2287 26.9023 24.1307C26.8314 24.0327 26.7419 23.9497 26.6388 23.8863C26.1159 23.5628 25.5483 23.3094 24.9631 23.0915C26.4049 22.0316 27.3496 20.3307 27.3496 18.4132C27.3496 15.2126 24.7297 12.5928 21.5291 12.5928ZM21.5291 14.4278C23.7389 14.4278 25.5163 16.2034 25.5163 18.4132C25.5163 20.623 23.7389 22.3914 21.5291 22.3914C19.3193 22.3914 17.5509 20.623 17.5509 18.4132C17.5509 16.2034 19.3193 14.4278 21.5291 14.4278ZM30.8068 25.4297C30.6578 25.434 30.5121 25.4745 30.3823 25.5478C30.2525 25.6211 30.1426 25.725 30.062 25.8504L26.902 30.5859L24.9201 29.2592C24.8196 29.1917 24.7067 29.1446 24.588 29.1207C24.4693 29.0969 24.347 29.0966 24.2282 29.1201C24.1094 29.1436 23.9964 29.1903 23.8957 29.2575C23.7949 29.3248 23.7085 29.4112 23.6412 29.5119C23.5739 29.6126 23.5272 29.7255 23.5037 29.8443C23.4802 29.9631 23.4804 30.0855 23.5042 30.2043C23.5281 30.323 23.5751 30.4358 23.6426 30.5364C23.7102 30.6369 23.7969 30.723 23.8978 30.79L26.6532 32.6234C26.7535 32.6899 26.866 32.7361 26.9843 32.7592C27.1025 32.7823 27.2241 32.7818 27.3422 32.7578C27.4602 32.7339 27.5724 32.687 27.6723 32.6197C27.7722 32.5523 27.8578 32.466 27.9243 32.3656L31.5928 26.8638C31.6884 26.724 31.7435 26.5605 31.7519 26.3913C31.7603 26.2221 31.7216 26.0539 31.6402 25.9054C31.5588 25.7568 31.4378 25.6338 31.2907 25.5498C31.1436 25.4658 30.9761 25.4242 30.8068 25.4297Z" fill="#5D44DF"/>
</svg>
