<svg width="20" height="20" viewBox="0 0 20 20" fill="none" xmlns="http://www.w3.org/2000/svg">
<g clip-path="url(#clip0_0_7822)">
<path d="M8.54172 9.375H0.625C0.279999 9.375 0 9.095 0 8.75C0 8.405 0.279999 8.125 0.625 8.125H8.54172C8.88672 8.125 9.16672 8.405 9.16672 8.75C9.16672 9.095 8.88672 9.375 8.54172 9.375Z" fill="black"/>
<path d="M5.41586 12.5006C5.2558 12.5006 5.09589 12.4397 4.97412 12.3174C4.72998 12.0731 4.72998 11.6772 4.97412 11.4331L7.65753 8.74985L4.97412 6.06735C4.72998 5.82306 4.72998 5.42725 4.97412 5.18311C5.21826 4.93896 5.61407 4.93896 5.85837 5.18311L8.98337 8.30811C9.22751 8.55225 9.22751 8.94806 8.98337 9.19235L5.85837 12.3174C5.73584 12.4397 5.57578 12.5006 5.41586 12.5006Z" fill="black"/>
<path d="M13.3345 20.0007C12.4153 20.0007 11.668 19.2531 11.668 18.334V3.33395C11.668 2.62152 12.1213 1.98569 12.7962 1.75146L17.8029 0.0823036C18.9229 -0.261019 20.0013 0.569822 20.0013 1.66739V16.6674C20.0013 17.3791 19.5479 18.014 18.8738 18.249L13.8654 19.919C13.6829 19.9756 13.5138 20.0007 13.3345 20.0007ZM18.3345 1.25067C18.2804 1.25067 18.2346 1.25738 18.1855 1.27234L13.1996 2.93478C13.0362 2.99154 12.918 3.15649 12.918 3.33395V18.334C12.918 18.6182 13.2262 18.8099 13.4838 18.729L18.4696 17.0666C18.6321 17.0098 18.7513 16.8448 18.7513 16.6674V1.66739C18.7513 1.4382 18.5646 1.25067 18.3345 1.25067Z" fill="black"/>
<path d="M7.29297 4.16672C6.94797 4.16672 6.66797 3.88672 6.66797 3.54172V2.29172C6.66797 1.02753 7.69534 0 8.95953 0H18.3345C18.6795 0 18.9595 0.279999 18.9595 0.625C18.9595 0.970001 18.6795 1.25 18.3345 1.25H8.95953C8.38535 1.25 7.91797 1.71753 7.91797 2.29172V3.54172C7.91797 3.88672 7.63797 4.16672 7.29297 4.16672Z" fill="black"/>
<path d="M12.293 17.5007H8.95953C7.69534 17.5007 6.66797 16.4732 6.66797 15.209V13.959C6.66797 13.614 6.94797 13.334 7.29297 13.334C7.63797 13.334 7.91797 13.614 7.91797 13.959V15.209C7.91797 15.7832 8.38535 16.2507 8.95953 16.2507H12.293C12.638 16.2507 12.918 16.5307 12.918 16.8757C12.918 17.2207 12.638 17.5007 12.293 17.5007Z" fill="black"/>
</g>
<defs>
<clipPath id="clip0_0_7822">
<rect width="20" height="20" fill="white"/>
</clipPath>
</defs>
</svg>
