<svg width="54" height="54" viewBox="0 0 54 54" fill="none" xmlns="http://www.w3.org/2000/svg">
<g clip-path="url(#clip0_0_7889)">
<path d="M27.0001 8.80392C27.6457 8.80392 28.174 8.27566 28.174 7.63001V7.04305C28.174 6.3974 27.6457 5.86914 27.0001 5.86914C26.3544 5.86914 25.8262 6.3974 25.8262 7.04305V7.63001C25.8262 8.27566 26.3544 8.80392 27.0001 8.80392Z" fill="#005F5F"/>
<path d="M27.0001 45.1953C26.3544 45.1953 25.8262 45.7236 25.8262 46.3692V46.9562C25.8262 47.6018 26.3544 48.1301 27.0001 48.1301C27.6457 48.1301 28.174 47.6018 28.174 46.9562V46.3692C28.174 45.7236 27.6457 45.1953 27.0001 45.1953Z" fill="#005F5F"/>
<path d="M7.63001 25.8262H7.04305C6.3974 25.8262 5.86914 26.3544 5.86914 27.0001C5.86914 27.6457 6.3974 28.174 7.04305 28.174H7.63001C8.27566 28.174 8.80392 27.6457 8.80392 27.0001C8.80392 26.3544 8.27566 25.8262 7.63001 25.8262Z" fill="#005F5F"/>
<path d="M46.9562 25.8262H46.3692C45.7236 25.8262 45.1953 26.3544 45.1953 27.0001C45.1953 27.6457 45.7236 28.174 46.3692 28.174H46.9562C47.6018 28.174 48.1301 27.6457 48.1301 27.0001C48.1301 26.3544 47.6018 25.8262 46.9562 25.8262Z" fill="#005F5F"/>
<path d="M13.7339 12.0914C13.2644 11.6219 12.56 11.6219 12.0905 12.0914C11.6209 12.561 11.6209 13.2653 12.0905 13.7349L12.5013 14.1458C12.7361 14.3806 13.0296 14.498 13.3231 14.498C13.6165 14.498 13.91 14.3806 14.1448 14.1458C14.6144 13.6762 14.6144 12.9719 14.1448 12.5023L13.7339 12.0914Z" fill="#005F5F"/>
<path d="M12.5013 39.8541L12.0905 40.265C11.6209 40.7346 11.6209 41.4389 12.0905 41.9085C12.3252 42.1433 12.6187 42.2606 12.9122 42.2606C13.2057 42.2606 13.4992 42.1433 13.7339 41.9085L14.1448 41.4976C14.6144 41.028 14.6144 40.3237 14.1448 39.8541C13.6752 39.3846 12.9709 39.3846 12.5013 39.8541Z" fill="#005F5F"/>
<path d="M40.265 12.0914L39.8541 12.5023C39.3846 12.9719 39.3846 13.6762 39.8541 14.1458C40.0889 14.3806 40.3824 14.498 40.6759 14.498C40.9693 14.498 41.2628 14.3806 41.4976 14.1458L41.9085 13.7349C42.378 13.2653 42.378 12.561 41.9085 12.0914C41.4389 11.6219 40.7346 11.6219 40.265 12.0914Z" fill="#005F5F"/>
<path d="M28.174 26.5304V15.8477C28.174 15.2021 27.6457 14.6738 27.0001 14.6738C26.3544 14.6738 25.8262 15.2021 25.8262 15.8477V26.9999C25.8262 27.2934 25.9436 27.5869 26.1783 27.8217L39.0327 40.676C39.2675 40.9108 39.561 41.0282 39.8544 41.0282C40.1479 41.0282 40.4414 40.9108 40.6762 40.676C41.1457 40.2064 41.1457 39.5021 40.6762 39.0325L28.174 26.5304Z" fill="#005F5F"/>
<path d="M27 0C12.0913 0 0 12.0913 0 27C0 41.9087 12.0913 54 27 54C41.9087 54 54 41.9087 54 27C54 12.0913 41.9087 0 27 0ZM27 51.6522C13.3826 51.6522 2.34783 40.6174 2.34783 27C2.34783 13.3826 13.3826 2.34783 27 2.34783C40.6174 2.34783 51.6522 13.3826 51.6522 27C51.6522 40.6174 40.6174 51.6522 27 51.6522Z" fill="#005F5F"/>
</g>
<defs>
<clipPath id="clip0_0_7889">
<rect width="54" height="54" fill="white"/>
</clipPath>
</defs>
</svg>
