<svg width="38" height="38" viewBox="0 0 38 38" fill="none" xmlns="http://www.w3.org/2000/svg">
<circle cx="19" cy="19" r="19" fill="white"/>
<path d="M14.6609 24.735H20.6076V14.1084C20.6076 13.8769 20.4182 13.6875 20.1867 13.6875H8.89938C8.6679 13.6875 8.47852 13.8769 8.47852 14.1084V24.3141C8.47852 24.5456 8.6679 24.735 8.89938 24.735H9.82106C9.82106 23.4008 10.9069 22.315 12.241 22.315C13.5751 22.315 14.6609 23.4008 14.6609 24.735Z" fill="black"/>
<path d="M26.4448 16.179C26.3648 16.0991 26.2554 16.0527 26.1418 16.0527H21.4492V24.735H23.0653C23.0653 23.4009 24.1511 22.3151 25.4852 22.3151C26.8193 22.3151 27.9051 23.4009 27.9051 24.735H29.1004C29.3319 24.735 29.5212 24.5456 29.5212 24.3141V19.4364C29.5212 19.3228 29.4749 19.2176 29.3992 19.1376C28.246 17.9803 27.5979 17.3322 26.4448 16.179ZM23.5787 20.8673H22.2909V16.8945H23.5787V20.8673ZM28.6795 20.8673H24.4204V16.8945H25.965C27.0087 17.934 27.64 18.5695 28.6795 19.609V20.8673Z" fill="black"/>
<path d="M25.4844 23.1562C24.6128 23.1562 23.9062 23.8629 23.9062 24.7345C23.9062 25.6061 24.6128 26.3127 25.4844 26.3127C26.3561 26.3127 27.0627 25.6061 27.0627 24.7345C27.0627 23.8629 26.3561 23.1562 25.4844 23.1562Z" fill="black"/>
<path d="M13.8185 24.7345C13.8185 23.8629 13.1119 23.1562 12.2403 23.1562C11.3687 23.1562 10.6621 23.8629 10.6621 24.7345C10.6621 25.6061 11.3687 26.3127 12.2403 26.3127C13.1119 26.3127 13.8185 25.6061 13.8185 24.7345Z" fill="black"/>
</svg>
