<svg width="38" height="38" viewBox="0 0 38 38" fill="none" xmlns="http://www.w3.org/2000/svg">
<circle cx="19" cy="19" r="19" fill="white"/>
<g clip-path="url(#clip0_0_6790)">
<path d="M14.6984 19.2028C15.9744 18.9465 17.5282 19.272 17.5282 19.272C17.5282 19.272 16.6467 16.8128 14.6984 14.7376C12.75 12.6635 10.454 11.7336 8.50614 9.15918C7.90341 11.0851 7.48557 13.7051 9.39507 15.7764C11.3053 17.8486 14.4437 18.3203 14.6984 19.2028Z" fill="black"/>
<path d="M29.7254 9.75C29.7254 9.75 23.2317 11.8825 21.2613 14.4583C19.29 17.0338 19.916 18.6321 18.5478 19.5605C17.9807 19.9455 16.6957 19.4674 15.6486 19.5136C14.8081 19.5519 13.8169 19.7424 13.2687 20.4742C12.9924 20.8427 13.0285 21.0893 13.0047 21.3702C12.564 22.2135 12.865 22.692 12.865 22.692C12.865 22.692 13.1033 22.2045 13.4917 22.2297C13.8804 22.252 14.1155 22.2783 14.3643 22.2489C14.6128 22.2181 14.7726 21.9475 15.2078 21.9804C15.6858 22.0144 16.2775 22.379 16.2971 23.0656C16.3289 24.1373 15.4045 24.9288 15.4768 25.3807C15.5555 25.8681 15.4413 26.0244 15.3697 26.2177C15.2682 26.4925 13.6503 25.5891 13.2588 26.2756C13.3919 26.2475 13.7519 26.2695 13.9636 26.3447C13.7283 26.4497 13.6151 26.5991 13.6158 26.7966C13.8335 26.5619 14.2677 26.6476 14.4164 26.6669C14.1646 26.736 14.0536 26.9961 13.9988 27.0917C14.6249 26.8053 15.5736 27.1021 15.7905 27.5873C16.0343 27.1952 15.8693 26.7043 15.8693 26.7043C15.8693 26.7043 16.0431 26.4828 16.3909 26.472C16.2867 26.8225 16.4232 26.92 16.4378 27.098C16.4514 27.2752 16.2436 27.7166 16.0508 27.834C15.8571 27.9485 14.878 27.8216 14.6342 28.3967C14.7807 28.3021 15.3038 28.1701 15.4347 28.2229C15.2782 28.2925 15.1391 28.424 15.1217 28.7111C15.3996 28.3973 15.9563 28.375 16.0695 28.4328C16.0003 28.5108 15.8438 28.5552 15.7913 28.8415C16.1309 28.6497 16.7998 28.2851 17.6186 28.6246C17.5657 28.1283 16.9743 27.9987 16.9743 27.9987C16.9743 27.9987 16.8959 27.2322 17.5499 27.1288C17.936 27.0667 18.6182 25.6775 18.9485 25.594C19.2791 25.5121 19.3656 25.8862 19.3085 26.079C19.2507 26.2709 18.5484 27.3332 18.5484 27.3332C18.5484 27.3332 19.7551 28.3991 21.5865 28.4701C23.42 28.5435 24.6939 27.3826 24.6939 27.3826C24.6939 27.3826 23.2587 26.2443 22.0303 25.2698C20.802 24.2939 21.0779 22.7981 21.0779 22.7981C21.0779 22.7981 22.7466 22.8011 23.3489 21.5563C24.8328 18.4944 28.6363 19.0766 29.7276 14.53C30.3417 11.9561 29.7254 9.75 29.7254 9.75ZM13.7808 21.1251C13.6368 21.1251 13.5197 21.0086 13.5197 20.8623C13.5197 20.7192 13.6361 20.6026 13.7808 20.6026C13.9251 20.6026 14.0413 20.7184 14.0413 20.8623C14.0413 21.0071 13.9251 21.1251 13.7808 21.1251Z" fill="black"/>
</g>
<defs>
<clipPath id="clip0_0_6790">
<rect width="22" height="22" fill="white" transform="translate(8 8)"/>
</clipPath>
</defs>
</svg>
