<svg width="34" height="34" viewBox="0 0 34 34" fill="none" xmlns="http://www.w3.org/2000/svg">
<g clip-path="url(#clip0_0_3809)">
<path d="M19.1246 17C19.1246 18.173 18.1726 19.125 16.9996 19.125C15.8266 19.125 14.8746 18.173 14.8746 17C14.8746 15.827 15.8266 14.875 16.9996 14.875C18.1726 14.875 19.1246 15.827 19.1246 17ZM24.0829 14.875C22.9099 14.875 21.9579 15.827 21.9579 17C21.9579 18.173 22.9099 19.125 24.0829 19.125C25.2559 19.125 26.2079 18.173 26.2079 17C26.2079 15.827 25.2559 14.875 24.0829 14.875ZM9.91628 14.875C8.74328 14.875 7.79128 15.827 7.79128 17C7.79128 18.173 8.74328 19.125 9.91628 19.125C11.0893 19.125 12.0413 18.173 12.0413 17C12.0413 15.827 11.0893 14.875 9.91628 14.875ZM33.9996 17.4817V26.9167C33.9996 30.8224 30.822 34 26.9163 34H18.5339C8.61578 34 0.665443 27.2114 0.0421094 18.2099C-0.299307 13.2855 1.49703 8.46603 4.97069 4.98811C8.44436 1.51019 13.2639 -0.291807 18.1839 0.0411095C27.0523 0.643193 33.9996 8.30311 33.9996 17.4817ZM31.1663 17.4817C31.1663 9.78778 25.3806 3.36886 17.9927 2.86736C17.6683 2.84469 17.3439 2.83478 17.0209 2.83478C13.2582 2.83478 9.64144 4.31944 6.97528 6.98986C4.07961 9.88836 2.58219 13.9074 2.86836 18.0144C3.39678 25.636 9.98569 31.1681 18.5353 31.1681H26.9177C29.2609 31.1681 31.1677 29.2613 31.1677 26.9181V17.4831L31.1663 17.4817Z" fill="#086D52"/>
</g>
<defs>
<clipPath id="clip0_0_3809">
<rect width="34" height="34" fill="white"/>
</clipPath>
</defs>
</svg>
