<svg width="44" height="45" viewBox="0 0 44 45" fill="none" xmlns="http://www.w3.org/2000/svg">
<rect y="0.701172" width="44" height="44" rx="4" fill="#E0ECE0"/>
<path d="M29.3333 22.7008V17.2008C29.3333 15.175 27.6925 13.5342 25.6667 13.5342H18.3333C16.3075 13.5342 14.6667 15.175 14.6667 17.2008V22.7008C12.6408 22.7008 11 24.3417 11 26.3675V28.2008C11 30.2267 12.6408 31.8675 14.6667 31.8675H29.3333C31.3592 31.8675 33 30.2267 33 28.2008V26.3675C33 24.3417 31.3592 22.7008 29.3333 22.7008ZM16.5 17.2008C16.5 16.1925 17.325 15.3675 18.3333 15.3675H25.6667C26.675 15.3675 27.5 16.1925 27.5 17.2008V26.3675H16.5V17.2008ZM31.1667 28.2008C31.1667 29.2092 30.3417 30.0342 29.3333 30.0342H14.6667C13.6583 30.0342 12.8333 29.2092 12.8333 28.2008V26.3675C12.8333 25.3592 13.6583 24.5342 14.6667 24.5342V27.2842C14.6667 27.7883 15.0792 28.2008 15.5833 28.2008H28.4167C28.9208 28.2008 29.3333 27.7883 29.3333 27.2842V24.5342C30.3417 24.5342 31.1667 25.3592 31.1667 26.3675V28.2008ZM18.5992 21.8758C18.2417 21.5183 18.2417 20.9408 18.5992 20.5833C18.9567 20.2258 19.5342 20.2258 19.8917 20.5833L20.9642 21.6558C21.1475 21.8392 21.4317 21.83 21.615 21.6558L24.0992 19.1717C24.4567 18.8142 25.0342 18.8142 25.3917 19.1717C25.7492 19.5292 25.7492 20.1067 25.3917 20.4642L22.9075 22.9483C22.4583 23.3975 21.8717 23.6175 21.285 23.6175C20.6983 23.6175 20.1117 23.3975 19.6625 22.9483L18.59 21.8758H18.5992Z" fill="#73AD57"/>
</svg>
