<svg width="22" height="23" viewBox="0 0 22 23" fill="none" xmlns="http://www.w3.org/2000/svg">
<g clip-path="url(#clip0_0_7689)">
<path d="M11 15.3678C10.2748 15.3678 9.56589 15.1528 8.96291 14.7499C8.35993 14.347 7.88996 13.7743 7.61244 13.1043C7.33492 12.4344 7.26231 11.6971 7.40379 10.9858C7.54527 10.2746 7.89448 9.62124 8.40728 9.10845C8.92007 8.59566 9.57341 8.24644 10.2847 8.10496C10.9959 7.96348 11.7332 8.03609 12.4032 8.31362C13.0732 8.59114 13.6458 9.0611 14.0487 9.66408C14.4516 10.2671 14.6667 10.976 14.6667 11.7012C14.6667 12.6736 14.2804 13.6063 13.5927 14.2939C12.9051 14.9815 11.9725 15.3678 11 15.3678ZM11 9.86784C10.6374 9.86784 10.2829 9.97536 9.98145 10.1768C9.67997 10.3783 9.44498 10.6646 9.30622 10.9996C9.16746 11.3346 9.13115 11.7032 9.20189 12.0588C9.27263 12.4145 9.44724 12.7411 9.70364 12.9975C9.96003 13.2539 10.2867 13.4285 10.6423 13.4993C10.998 13.57 11.3666 13.5337 11.7016 13.395C12.0366 13.2562 12.3229 13.0212 12.5244 12.7197C12.7258 12.4182 12.8333 12.0638 12.8333 11.7012C12.8333 11.2149 12.6402 10.7486 12.2964 10.4048C11.9525 10.061 11.4862 9.86784 11 9.86784ZM16.5 21.7845C16.5 20.3258 15.9205 18.9269 14.8891 17.8954C13.8576 16.864 12.4587 16.2845 11 16.2845C9.54131 16.2845 8.14236 16.864 7.11091 17.8954C6.07946 18.9269 5.5 20.3258 5.5 21.7845C5.5 22.0276 5.59658 22.2608 5.76849 22.4327C5.94039 22.6046 6.17355 22.7012 6.41667 22.7012C6.65978 22.7012 6.89294 22.6046 7.06485 22.4327C7.23676 22.2608 7.33333 22.0276 7.33333 21.7845C7.33333 20.812 7.71964 19.8794 8.40728 19.1918C9.09491 18.5042 10.0275 18.1178 11 18.1178C11.9725 18.1178 12.9051 18.5042 13.5927 19.1918C14.2804 19.8794 14.6667 20.812 14.6667 21.7845C14.6667 22.0276 14.7632 22.2608 14.9352 22.4327C15.1071 22.6046 15.3402 22.7012 15.5833 22.7012C15.8264 22.7012 16.0596 22.6046 16.2315 22.4327C16.4034 22.2608 16.5 22.0276 16.5 21.7845ZM16.5 8.03451C15.7748 8.03451 15.0659 7.81946 14.4629 7.41656C13.8599 7.01366 13.39 6.44101 13.1124 5.77101C12.8349 5.10102 12.7623 4.36377 12.9038 3.65251C13.0453 2.94125 13.3945 2.28791 13.9073 1.77512C14.4201 1.26232 15.0734 0.913107 15.7847 0.771627C16.4959 0.630148 17.2332 0.702761 17.9032 0.980282C18.5732 1.2578 19.1458 1.72777 19.5487 2.33075C19.9516 2.93373 20.1667 3.64264 20.1667 4.36784C20.1667 5.3403 19.7804 6.27293 19.0927 6.96057C18.4051 7.6482 17.4725 8.03451 16.5 8.03451ZM16.5 2.53451C16.1374 2.53451 15.7829 2.64203 15.4815 2.84348C15.18 3.04493 14.945 3.33126 14.8062 3.66625C14.6675 4.00125 14.6312 4.36987 14.7019 4.72551C14.7726 5.08114 14.9472 5.40781 15.2036 5.6642C15.46 5.9206 15.7867 6.09521 16.1423 6.16595C16.498 6.23669 16.8666 6.20038 17.2016 6.06162C17.5366 5.92286 17.8229 5.68788 18.0244 5.38639C18.2258 5.0849 18.3333 4.73044 18.3333 4.36784C18.3333 3.88161 18.1402 3.41529 17.7964 3.07148C17.4525 2.72766 16.9862 2.53451 16.5 2.53451ZM22 14.4512C21.9985 12.9929 21.4186 11.5948 20.3875 10.5637C19.3563 9.53256 17.9582 8.95263 16.5 8.95117C16.2569 8.95117 16.0237 9.04775 15.8518 9.21966C15.6799 9.39157 15.5833 9.62473 15.5833 9.86784C15.5833 10.111 15.6799 10.3441 15.8518 10.516C16.0237 10.6879 16.2569 10.7845 16.5 10.7845C17.4725 10.7845 18.4051 11.1708 19.0927 11.8584C19.7804 12.5461 20.1667 13.4787 20.1667 14.4512C20.1667 14.6943 20.2632 14.9274 20.4352 15.0994C20.6071 15.2713 20.8402 15.3678 21.0833 15.3678C21.3264 15.3678 21.5596 15.2713 21.7315 15.0994C21.9034 14.9274 22 14.6943 22 14.4512ZM5.5 8.03451C4.7748 8.03451 4.06589 7.81946 3.46291 7.41656C2.85993 7.01366 2.38996 6.44101 2.11244 5.77101C1.83492 5.10102 1.76231 4.36377 1.90379 3.65251C2.04527 2.94125 2.39448 2.28791 2.90728 1.77512C3.42007 1.26232 4.07341 0.913107 4.78467 0.771627C5.49593 0.630148 6.23318 0.702761 6.90317 0.980282C7.57317 1.2578 8.14582 1.72777 8.54872 2.33075C8.95162 2.93373 9.16667 3.64264 9.16667 4.36784C9.16667 5.3403 8.78036 6.27293 8.09272 6.96057C7.40509 7.6482 6.47246 8.03451 5.5 8.03451ZM5.5 2.53451C5.1374 2.53451 4.78295 2.64203 4.48145 2.84348C4.17996 3.04493 3.94498 3.33126 3.80622 3.66625C3.66746 4.00125 3.63115 4.36987 3.70189 4.72551C3.77263 5.08114 3.94724 5.40781 4.20364 5.6642C4.46003 5.9206 4.7867 6.09521 5.14233 6.16595C5.49797 6.23669 5.86659 6.20038 6.20159 6.06162C6.53658 5.92286 6.82291 5.68788 7.02436 5.38639C7.22581 5.0849 7.33333 4.73044 7.33333 4.36784C7.33333 3.88161 7.14018 3.41529 6.79636 3.07148C6.45255 2.72766 5.98623 2.53451 5.5 2.53451ZM1.83333 14.4512C1.83333 13.4787 2.21964 12.5461 2.90728 11.8584C3.59491 11.1708 4.52754 10.7845 5.5 10.7845C5.74312 10.7845 5.97627 10.6879 6.14818 10.516C6.32009 10.3441 6.41667 10.111 6.41667 9.86784C6.41667 9.62473 6.32009 9.39157 6.14818 9.21966C5.97627 9.04775 5.74312 8.95117 5.5 8.95117C4.04176 8.95263 2.64366 9.53256 1.61252 10.5637C0.581386 11.5948 0.00145606 12.9929 0 14.4512C0 14.6943 0.0965771 14.9274 0.268485 15.0994C0.440394 15.2713 0.673552 15.3678 0.916667 15.3678C1.15978 15.3678 1.39294 15.2713 1.56485 15.0994C1.73676 14.9274 1.83333 14.6943 1.83333 14.4512Z" fill="#5895FB"/>
</g>
<defs>
<clipPath id="clip0_0_7689">
<rect width="22" height="22" fill="white" transform="translate(0 0.701172)"/>
</clipPath>
</defs>
</svg>
