<svg width="34" height="34" viewBox="0 0 34 34" fill="none" xmlns="http://www.w3.org/2000/svg">
<g clip-path="url(#clip0_0_3715)">
<path d="M17 0C13.6377 0 10.3509 0.997033 7.55531 2.86502C4.75968 4.733 2.58075 7.38804 1.29406 10.4944C0.00736586 13.6007 -0.329291 17.0189 0.326658 20.3165C0.982607 23.6142 2.6017 26.6433 4.97919 29.0208C7.35668 31.3983 10.3858 33.0174 13.6835 33.6734C16.9811 34.3293 20.3993 33.9926 23.5056 32.706C26.612 31.4193 29.267 29.2403 31.135 26.4447C33.003 23.6491 34 20.3623 34 17C33.9951 12.4928 32.2025 8.17163 29.0154 4.98457C25.8284 1.79751 21.5072 0.00487487 17 0ZM17 31.1667C14.1981 31.1667 11.4591 30.3358 9.12943 28.7792C6.79973 27.2225 4.98396 25.01 3.91171 22.4214C2.83947 19.8327 2.55893 16.9843 3.10555 14.2362C3.65217 11.4882 5.00142 8.9639 6.98266 6.98265C8.96391 5.00141 11.4882 3.65217 14.2362 3.10554C16.9843 2.55892 19.8327 2.83947 22.4214 3.91171C25.01 4.98395 27.2225 6.79973 28.7792 9.12942C30.3358 11.4591 31.1667 14.1981 31.1667 17C31.1625 20.756 29.6687 24.3569 27.0128 27.0128C24.3569 29.6687 20.756 31.1625 17 31.1667Z" fill="#086D52"/>
<path d="M18.0154 7.17186C17.1985 7.02301 16.3588 7.05553 15.5558 7.26712C14.7528 7.4787 14.0061 7.86419 13.3686 8.39629C12.7311 8.92839 12.2183 9.59411 11.8665 10.3463C11.5148 11.0985 11.3326 11.9189 11.333 12.7493C11.333 13.125 11.4823 13.4853 11.7479 13.751C12.0136 14.0167 12.374 14.1659 12.7497 14.1659C13.1254 14.1659 13.4857 14.0167 13.7514 13.751C14.0171 13.4853 14.1663 13.125 14.1663 12.7493C14.166 12.3325 14.2576 11.9207 14.4346 11.5433C14.6117 11.166 14.8698 10.8324 15.1906 10.5662C15.5114 10.3001 15.887 10.108 16.2905 10.0037C16.6941 9.89937 17.1157 9.88537 17.5253 9.96269C18.0849 10.0713 18.5995 10.3443 19.0032 10.7468C19.4069 11.1493 19.6815 11.663 19.7919 12.2223C19.9034 12.8093 19.8264 13.4166 19.572 13.9573C19.3176 14.498 18.8987 14.9444 18.3753 15.2327C17.5085 15.7348 16.7923 16.4603 16.3012 17.3333C15.81 18.2064 15.5621 19.1952 15.583 20.1967V21.2493C15.583 21.625 15.7323 21.9853 15.9979 22.251C16.2636 22.5167 16.624 22.6659 16.9997 22.6659C17.3754 22.6659 17.7357 22.5167 18.0014 22.251C18.2671 21.9853 18.4163 21.625 18.4163 21.2493V20.1967C18.3986 19.7037 18.511 19.2147 18.7423 18.779C18.9736 18.3433 19.3156 17.9762 19.7338 17.7147C20.7602 17.151 21.5868 16.2831 22.0998 15.2304C22.6128 14.1778 22.7871 12.992 22.5987 11.8363C22.4104 10.6805 21.8685 9.61149 21.0478 8.77623C20.2271 7.94096 19.1677 7.38048 18.0154 7.17186Z" fill="#086D52"/>
<path d="M18.4163 25.5007C18.4163 24.7182 17.7821 24.084 16.9997 24.084C16.2173 24.084 15.583 24.7182 15.583 25.5007C15.583 26.2831 16.2173 26.9173 16.9997 26.9173C17.7821 26.9173 18.4163 26.2831 18.4163 25.5007Z" fill="#086D52"/>
</g>
<defs>
<clipPath id="clip0_0_3715">
<rect width="34" height="34" fill="white"/>
</clipPath>
</defs>
</svg>
