<svg width="22" height="22" viewBox="0 0 22 22" fill="none" xmlns="http://www.w3.org/2000/svg">
<g clip-path="url(#clip0_0_3772)">
<path d="M7.33333 0C4.30008 0 1.83333 2.46675 1.83333 5.5C1.83333 8.53325 4.30008 11 7.33333 11C10.3666 11 12.8333 8.53325 12.8333 5.5C12.8333 2.46675 10.3666 0 7.33333 0ZM7.33333 9.16667C5.31117 9.16667 3.66667 7.52217 3.66667 5.5C3.66667 3.47783 5.31117 1.83333 7.33333 1.83333C9.3555 1.83333 11 3.47783 11 5.5C11 7.52217 9.3555 9.16667 7.33333 9.16667ZM10.076 13.9214C10.0137 14.4228 9.55992 14.7812 9.053 14.7171C8.78992 14.6841 8.52225 14.6676 8.25 14.6676C4.71258 14.6676 1.83333 17.5459 1.83333 21.0842C1.83333 21.5902 1.42358 22.0009 0.916667 22.0009C0.40975 22.0009 0 21.5902 0 21.0842C0 16.5357 3.70058 12.8342 8.25 12.8342C8.59558 12.8342 8.94208 12.8553 9.28033 12.8984C9.78358 12.9617 10.1393 13.4182 10.076 13.9214ZM16.5 21.0833C16.5 21.5893 16.0903 22 15.5833 22H14.6667C13.1505 22 11.9167 20.7662 11.9167 19.25V13.75C11.9167 12.2338 13.1505 11 14.6667 11H15.5833C16.0903 11 16.5 11.4107 16.5 11.9167C16.5 12.4227 16.0903 12.8333 15.5833 12.8333H14.6667C14.1607 12.8333 13.75 13.2449 13.75 13.75V19.25C13.75 19.7551 14.1607 20.1667 14.6667 20.1667H15.5833C16.0903 20.1667 16.5 20.5773 16.5 21.0833ZM21.9963 16.5192C21.9963 17.017 21.8038 17.446 21.4473 17.7558L19.4315 19.5332C19.2583 19.6863 19.041 19.7624 18.8256 19.7624C18.5726 19.7624 18.3187 19.6579 18.1381 19.4517C17.8035 19.0722 17.8402 18.4928 18.2197 18.1582L19.0603 17.4167H16.5009C15.994 17.4167 15.5843 17.006 15.5843 16.5C15.5843 15.994 15.994 15.5833 16.5009 15.5833H18.9374L18.2197 14.9499C17.8402 14.6153 17.8035 14.036 18.1381 13.6565C18.4727 13.2761 19.0548 13.2422 19.4315 13.5749L21.4546 15.3587C21.7928 15.6466 21.9963 16.0811 21.9963 16.5192Z" fill="#16142C"/>
</g>
<defs>
<clipPath id="clip0_0_3772">
<rect width="22" height="22" fill="white"/>
</clipPath>
</defs>
</svg>
