<?xml version="1.0" encoding="UTF-8"?>
<!DOCTYPE svg PUBLIC "-//W3C//DTD SVG 1.1//EN" "http://www.w3.org/Graphics/SVG/1.1/DTD/svg11.dtd">
<svg xmlns="http://www.w3.org/2000/svg" version="1.1" width="1200px" height="1200px" style="shape-rendering:geometricPrecision; text-rendering:geometricPrecision; image-rendering:optimizeQuality; fill-rule:evenodd; clip-rule:evenodd" xmlns:xlink="http://www.w3.org/1999/xlink">
<g><path style="opacity:0.978" fill="#0b994b" d="M 573.5,1.5 C 759.623,-2.47781 916.123,62.8555 1043,197.5C 1154.65,324.755 1205.65,473.422 1196,643.5C 1182.25,802.146 1117.42,935.313 1001.5,1043C 874.245,1154.65 725.578,1205.65 555.5,1196C 396.858,1182.26 263.691,1117.42 156,1001.5C 44.3543,874.245 -6.64568,725.578 3,555.5C 16.7455,396.854 81.5788,263.687 197.5,156C 304.589,61.1109 429.922,9.61087 573.5,1.5 Z"/></g>
<g><path style="opacity:1" fill="#fefefe" d="M 576.5,14.5 C 741.073,11.1683 883.406,65.0016 1003.5,176C 1120.21,290.983 1180.55,430.816 1184.5,595.5C 1181.99,774.31 1114.65,923.144 982.5,1042C 852.954,1150.39 703.621,1196.73 534.5,1181C 393.889,1163.44 274.389,1104.28 176,1003.5C 57.2472,874.263 4.24724,721.596 17,545.5C 33.7282,389.865 100.228,260.365 216.5,157C 320.156,69.0423 440.156,21.5423 576.5,14.5 Z"/></g>
<g><path style="opacity:1" fill="#139a4e" d="M 593.5,58.5 C 603.172,58.3335 612.839,58.5002 622.5,59C 642.574,62.5724 653.908,74.4058 656.5,94.5C 660.833,94.5 665.167,94.5 669.5,94.5C 668.771,99.1304 668.437,103.797 668.5,108.5C 664.881,107.756 661.215,107.423 657.5,107.5C 655.334,127.493 653.168,147.493 651,167.5C 646.913,168.249 642.747,168.249 638.5,167.5C 640.573,146.839 642.573,126.172 644.5,105.5C 635.529,104.528 626.529,103.861 617.5,103.5C 617.666,107.514 617.499,111.514 617,115.5C 616.117,118.102 614.617,120.269 612.5,122C 621.661,128.501 625.161,137.335 623,148.5C 622.025,154.156 621.192,159.823 620.5,165.5C 618.143,165.663 615.81,165.497 613.5,165C 610.044,161.213 605.711,159.379 600.5,159.5C 589.394,161.527 578.394,164.027 567.5,167C 551.547,168.034 545.047,160.534 548,144.5C 550.007,143.331 552.173,142.665 554.5,142.5C 553.669,146.476 553.503,150.476 554,154.5C 555.117,156.124 556.617,157.124 558.5,157.5C 569.385,153.371 580.551,150.371 592,148.5C 598.875,148.679 604.875,151.012 610,155.5C 611.876,147.921 612.542,140.254 612,132.5C 611.5,130.667 610.333,129.5 608.5,129C 604.705,128.163 601.039,128.496 597.5,130C 592.644,133.355 588.644,137.522 585.5,142.5C 582.244,140.289 579.078,137.955 576,135.5C 575.333,134.5 575.333,133.5 576,132.5C 579.312,130.355 582.146,127.688 584.5,124.5C 582.543,122.515 580.21,121.015 577.5,120C 569.819,117.999 563.319,119.833 558,125.5C 556.579,128.009 554.912,130.343 553,132.5C 549.5,129.667 546,126.833 542.5,124C 557.354,103.987 572.687,103.487 588.5,122.5C 593.853,119.89 599.52,118.89 605.5,119.5C 606.463,115.204 606.629,110.871 606,106.5C 605.535,105.069 604.701,103.903 603.5,103C 548.974,102.361 495.64,110.028 443.5,126C 431.946,129.778 420.612,134.111 409.5,139C 407.187,139.641 405.52,140.974 404.5,143C 411.5,161.333 418.5,179.667 425.5,198C 425.241,199.261 424.574,200.261 423.5,201C 420.145,202.118 416.978,203.618 414,205.5C 405.976,186.431 398.142,167.264 390.5,148C 387.756,148.019 385.089,148.686 382.5,150C 367.518,157.157 352.852,164.823 338.5,173C 332.186,175.845 332.186,178.178 338.5,180C 352.133,181.385 364.3,177.885 375,169.5C 377.449,170.944 379.615,172.778 381.5,175C 373.869,186.729 371.369,199.562 374,213.5C 375.029,217.889 376.862,221.889 379.5,225.5C 376.697,227.271 373.697,228.104 370.5,228C 362.341,215.203 359.675,201.369 362.5,186.5C 352.244,186.531 341.911,186.364 331.5,186C 328.947,185.239 326.447,184.406 324,183.5C 314.333,189.167 306.667,196.833 301,206.5C 299.031,217.865 303.531,222.365 314.5,220C 322.001,214.845 326.334,207.678 327.5,198.5C 340.956,196.115 349.79,201.449 354,214.5C 355.864,226.276 352.03,235.776 342.5,243C 328.481,250.936 313.481,253.603 297.5,251C 287.431,249.733 277.764,247.066 268.5,243C 267.669,240.153 268.669,237.986 271.5,236.5C 286.309,242.878 301.642,244.711 317.5,242C 334.718,238.808 342.884,228.642 342,211.5C 341.261,210.426 340.261,209.759 339,209.5C 335.74,213.144 332.573,216.977 329.5,221C 320.663,228.505 310.663,230.838 299.5,228C 296.333,226.167 293.833,223.667 292,220.5C 290.894,215.231 290.227,209.897 290,204.5C 274.221,217.311 258.721,230.477 243.5,244C 258.052,258.716 272.052,273.883 285.5,289.5C 284.375,292.45 282.375,294.45 279.5,295.5C 266.236,293.224 257.403,298.557 253,311.5C 249.878,323.547 245.212,334.88 239,345.5C 232.17,351.158 224.336,352.991 215.5,351C 211.6,349.435 207.934,347.435 204.5,345C 202.146,341.552 201.979,338.052 204,334.5C 210.114,343.986 217.948,345.819 227.5,340C 229.727,337.436 231.561,334.603 233,331.5C 234.824,325.205 236.49,318.872 238,312.5C 242.669,298.168 252.502,290.002 267.5,288C 260.683,280.016 253.35,272.516 245.5,265.5C 238.253,283.235 231.587,301.235 225.5,319.5C 221.217,320.492 216.884,320.826 212.5,320.5C 212.837,316.692 212.337,313.026 211,309.5C 206.375,305.354 202.041,305.687 198,310.5C 196.82,316.343 193.487,320.343 188,322.5C 186.441,321.971 184.941,321.304 183.5,320.5C 179.396,279.777 197.729,258.944 238.5,258C 233.943,253.946 229.943,249.446 226.5,244.5C 343.491,131.933 483.491,81.2666 646.5,92.5C 643.559,76.5129 633.893,68.8463 617.5,69.5C 603.595,69.9765 590.261,72.9765 577.5,78.5C 575.668,73.5531 575.002,68.5531 575.5,63.5C 581.564,61.6133 587.564,59.9466 593.5,58.5 Z"/></g>
<g><path style="opacity:1" fill="#119a4d" d="M 709.5,102.5 C 750.221,111.907 789.555,125.407 827.5,143C 830.21,144.015 832.543,145.515 834.5,147.5C 832.689,150.955 831.022,154.455 829.5,158C 826.388,157.457 823.388,156.29 820.5,154.5C 810.173,173.152 800.34,192.152 791,211.5C 786.451,211.668 782.284,210.168 778.5,207C 789.241,187.688 798.907,168.188 807.5,148.5C 801.061,144.875 794.561,142.208 788,140.5C 779.437,159.958 770.104,178.958 760,197.5C 759.127,197.265 758.293,196.931 757.5,196.5C 752.554,175.721 740.221,161.221 720.5,153C 714.973,151.158 709.473,149.324 704,147.5C 703.335,142.844 702.835,138.177 702.5,133.5C 725.147,135.943 747.813,138.276 770.5,140.5C 774.767,141.475 777.433,139.975 778.5,136C 754.967,127.432 730.967,120.599 706.5,115.5C 707.344,111.126 708.344,106.793 709.5,102.5 Z"/></g>
<g><path style="opacity:1" fill="#129a4e" d="M 489.5,118.5 C 519.232,117.38 529.065,130.713 519,158.5C 509.465,172.863 495.965,179.53 478.5,178.5C 453.552,177.36 434.219,166.36 420.5,145.5C 422.765,144.353 425.098,144.186 427.5,145C 441.95,159.227 459.283,166.227 479.5,166C 494.63,164.184 505.13,156.351 511,142.5C 513.229,130.732 508.396,125.232 496.5,126C 492.835,127.497 489.502,129.497 486.5,132C 483.112,136.622 479.612,141.122 476,145.5C 471.671,142.004 467.504,138.337 463.5,134.5C 470.955,127.11 479.622,121.777 489.5,118.5 Z"/></g>
<g><path style="opacity:1" fill="#f8fcfa" d="M 742.5,150.5 C 751.344,149.342 760.344,149.342 769.5,150.5C 767.05,157.402 764.05,164.068 760.5,170.5C 755.429,163.047 749.429,156.38 742.5,150.5 Z"/></g>
<g><path style="opacity:1" fill="#149a4f" d="M 849.5,158.5 C 855.509,158.334 861.509,158.501 867.5,159C 883.203,164.239 888.369,174.739 883,190.5C 879.459,197.027 873.959,200.86 866.5,202C 854.122,204.653 843.956,201.153 836,191.5C 829.554,175.752 834.054,164.752 849.5,158.5 Z"/></g>
<g><path style="opacity:1" fill="#fafdfb" d="M 853.5,168.5 C 861.152,167.817 868.485,168.984 875.5,172C 882.76,179.039 881.76,184.706 872.5,189C 862.662,192.595 852.996,192.262 843.5,188C 839.329,184.146 838.496,179.646 841,174.5C 844.653,171.237 848.819,169.237 853.5,168.5 Z"/></g>
<g><path style="opacity:1" fill="#119a4d" d="M 905.5,189.5 C 996.199,256.176 1059.03,343.176 1094,450.5C 1097.95,462.563 1099.95,474.896 1100,487.5C 1098.56,498.209 1094.06,507.376 1086.5,515C 1095.13,520.774 1100.97,528.608 1104,538.5C 1105.37,548.722 1102.2,557.222 1094.5,564C 1101.49,564.5 1108.49,564.666 1115.5,564.5C 1116.17,573.485 1116.5,582.485 1116.5,591.5C 1111.5,591.5 1106.5,591.5 1101.5,591.5C 1101.5,587.5 1101.5,583.5 1101.5,579.5C 1080.83,579.792 1060.17,580.125 1039.5,580.5C 1039.5,576.167 1039.5,571.833 1039.5,567.5C 1053.93,567.33 1068.27,566.163 1082.5,564C 1089.89,559.733 1093.56,553.233 1093.5,544.5C 1093.45,535.228 1089.45,528.395 1081.5,524C 1073.12,521.514 1068.45,524.514 1067.5,533C 1067.85,538.538 1070.19,543.038 1074.5,546.5C 1070.42,549.623 1066.25,552.623 1062,555.5C 1052.64,542.472 1053.47,530.138 1064.5,518.5C 1049.82,510.193 1043.49,497.526 1045.5,480.5C 1051.21,480.171 1056.87,480.505 1062.5,481.5C 1059.71,489.902 1059.88,498.235 1063,506.5C 1070.26,513.374 1077.26,513.041 1084,505.5C 1086.9,499.694 1088.07,493.527 1087.5,487C 1087.33,483.5 1087.17,480 1087,476.5C 1078.29,446.202 1067.12,416.869 1053.5,388.5C 1052.83,388.167 1052.17,387.833 1051.5,387.5C 1041.89,391.637 1032.56,396.304 1023.5,401.5C 1034.9,411.396 1045.06,422.396 1054,434.5C 1053.28,442.377 1051.45,450.044 1048.5,457.5C 1035.37,447.673 1021.71,447.007 1007.5,455.5C 1003.87,452.496 1003.87,449.662 1007.5,447C 1017.11,441.462 1027.45,438.128 1038.5,437C 1029.18,426.015 1018.35,416.848 1006,409.5C 1005.17,403.141 1005.34,396.807 1006.5,390.5C 1019.74,384.629 1032.91,378.629 1046,372.5C 1037.75,350.937 1021.91,341.437 998.5,344C 991.851,345.74 986.017,348.907 981,353.5C 975.467,359.903 975.133,366.57 980,373.5C 983.589,377.033 987.422,380.2 991.5,383C 990.273,385.957 988.44,388.457 986,390.5C 972.628,381.095 967.628,368.429 971,352.5C 978.161,338.914 989.494,332.247 1005,332.5C 1012.6,332.358 1019.77,334.025 1026.5,337.5C 1027.52,336.998 1027.69,336.332 1027,335.5C 1020.42,325.42 1012.92,316.086 1004.5,307.5C 987.243,320.712 970.076,334.046 953,347.5C 949.7,344.25 947.366,340.583 946,336.5C 961.877,322.955 978.043,309.788 994.5,297C 996.007,296.163 996.507,294.996 996,293.5C 991.667,288.167 987.333,282.833 983,277.5C 965.924,290.954 948.757,304.288 931.5,317.5C 927.956,314.37 925.456,310.704 924,306.5C 933.564,298.636 943.397,291.136 953.5,284C 954.305,278.597 952.305,274.263 947.5,271C 939.117,265.754 930.45,265.254 921.5,269.5C 920.669,263.193 920.169,256.859 920,250.5C 914.395,231.851 902.228,224.685 883.5,229C 876.671,239.031 879.338,245.364 891.5,248C 894.817,248.498 898.15,248.665 901.5,248.5C 901.5,252.833 901.5,257.167 901.5,261.5C 887.607,261.312 877.773,254.979 872,242.5C 871.056,229.9 876.556,221.4 888.5,217C 903.657,214.828 914.49,220.661 921,234.5C 923.631,239.888 925.131,245.555 925.5,251.5C 943.847,252.255 955.014,261.589 959,279.5C 963.965,275.609 968.799,271.609 973.5,267.5C 949.702,243.196 924.535,220.53 898,199.5C 897.333,198.833 897.333,198.167 898,197.5C 900.705,194.964 903.205,192.297 905.5,189.5 Z"/></g>
<g><path style="opacity:1" fill="#159b4f" d="M 824.5,198.5 C 840.931,211.49 852.597,227.99 859.5,248C 858.132,250.567 856.632,253.067 855,255.5C 850.135,239.629 840.968,226.796 827.5,217C 824.42,214.71 821.253,212.543 818,210.5C 818.966,205.987 821.133,201.987 824.5,198.5 Z"/></g>
<g><path style="opacity:1" fill="#ec2227" d="M 565.5,200.5 C 709.699,193.212 826.866,245.212 917,356.5C 993.968,461.929 1016.64,578.262 985,705.5C 949.081,825.406 874.581,911.906 761.5,965C 669.401,1003.71 575.401,1009.04 479.5,981C 349.24,936.407 262.073,848.907 218,718.5C 182.557,595.846 199.557,481.18 269,374.5C 332.682,283.866 419.182,227.7 528.5,206C 540.942,203.914 553.275,202.081 565.5,200.5 Z"/></g>
<g><path style="opacity:1" fill="#fafdfb" d="M 218.5,268.5 C 221.85,268.335 225.183,268.502 228.5,269C 224.618,280.021 221.118,291.188 218,302.5C 217.439,303.022 216.772,303.355 216,303.5C 213.243,300.79 209.909,299.457 206,299.5C 202.956,299.664 200.123,300.164 197.5,301C 197.765,285.886 204.765,275.053 218.5,268.5 Z"/></g>
<g><path style="opacity:1" fill="#fbed23" d="M 424.5,324.5 C 425.496,324.414 426.329,324.748 427,325.5C 426.031,331.32 428.198,335.32 433.5,337.5C 435.68,342.802 439.68,344.969 445.5,344C 447.394,345.079 447.727,346.413 446.5,348C 450.52,351.011 453.353,354.844 455,359.5C 456.579,361.041 458.413,362.208 460.5,363C 461.376,364.586 462.376,366.086 463.5,367.5C 465.167,366.167 466.833,364.833 468.5,363.5C 469.875,366.547 472.208,367.88 475.5,367.5C 475.617,365.516 474.95,363.85 473.5,362.5C 473.833,362.167 474.167,361.833 474.5,361.5C 477.234,363.371 480.234,364.371 483.5,364.5C 483.649,363.448 483.483,362.448 483,361.5C 480.436,359.273 477.603,357.439 474.5,356C 470.659,352.779 470.826,349.613 475,346.5C 477.425,351.063 481.258,352.729 486.5,351.5C 486.481,353.06 486.148,354.56 485.5,356C 487.983,358.403 487.983,360.736 485.5,363C 486.685,364.353 488.019,365.52 489.5,366.5C 490.147,369.454 490.314,372.454 490,375.5C 491.934,378.688 494.768,380.188 498.5,380C 501.194,383.36 504.194,386.36 507.5,389C 510.833,389.333 514.167,389.667 517.5,390C 519.086,393.917 521.419,394.417 524.5,391.5C 526.383,391.876 527.883,392.876 529,394.5C 530.656,391.947 530.823,389.281 529.5,386.5C 532.119,386.768 534.619,386.435 537,385.5C 537.667,384.5 537.667,383.5 537,382.5C 534.343,381.427 532.177,379.76 530.5,377.5C 531.939,375.447 533.939,374.447 536.5,374.5C 536.227,372.042 537.227,370.375 539.5,369.5C 542.167,372.167 544.833,374.833 547.5,377.5C 548.469,379.573 549.135,381.739 549.5,384C 548.678,386.472 548.011,388.972 547.5,391.5C 549.527,391.338 551.527,391.505 553.5,392C 556.182,394.317 556.015,396.484 553,398.5C 552.646,402.131 551.813,405.631 550.5,409C 551.022,411.21 551.688,413.377 552.5,415.5C 551.6,417.239 550.933,419.072 550.5,421C 551.201,423.38 552.367,425.547 554,427.5C 554.667,432.833 554.667,438.167 554,443.5C 552.87,446.923 551.37,450.089 549.5,453C 550.31,455.904 550.643,458.738 550.5,461.5C 552.632,459.883 554.965,459.383 557.5,460C 564.194,462.219 570.194,465.552 575.5,470C 583.113,470.649 590.113,472.983 596.5,477C 603.67,477.398 610.836,477.231 618,476.5C 622.069,476.289 625.902,476.956 629.5,478.5C 631.003,477.477 632.503,476.477 634,475.5C 637.034,478.1 640.534,479.767 644.5,480.5C 650.184,478.904 655.684,476.904 661,474.5C 665.873,476.982 670.707,476.982 675.5,474.5C 678.829,475.322 681.495,477.155 683.5,480C 687.619,480.143 691.619,480.81 695.5,482C 698.833,482.667 702.167,482.667 705.5,482C 707.217,480.441 709.217,479.608 711.5,479.5C 711.5,481.167 711.5,482.833 711.5,484.5C 724.815,480.887 738.481,479.387 752.5,480C 754.821,482.774 757.821,484.274 761.5,484.5C 763.65,487.151 765.983,489.651 768.5,492C 777.798,489.161 783.131,492.661 784.5,502.5C 786.331,501.948 787.997,501.948 789.5,502.5C 791.09,506.262 790.757,509.762 788.5,513C 782.289,513.498 777.289,511.164 773.5,506C 772.833,505.333 772.167,505.333 771.5,506C 770.164,508.602 768.831,511.269 767.5,514C 769.247,516.98 769.747,520.147 769,523.5C 767.333,526.167 765.667,528.833 764,531.5C 763.672,536.525 763.672,541.525 764,546.5C 762.471,545.271 761.304,543.771 760.5,542C 759.207,541.51 757.873,541.343 756.5,541.5C 757.265,544.633 757.932,547.8 758.5,551C 758.076,554.808 755.91,556.308 752,555.5C 748.459,554.975 744.959,554.308 741.5,553.5C 741.383,555.484 742.05,557.15 743.5,558.5C 741.286,559.041 739.12,559.374 737,559.5C 736.667,563.833 736.333,568.167 736,572.5C 735.417,574.002 734.584,575.335 733.5,576.5C 732.792,573.634 732.125,570.8 731.5,568C 730.833,567.833 730.167,567.667 729.5,567.5C 726.47,571.583 723.803,571.416 721.5,567C 720.833,566.333 720.167,566.333 719.5,567C 718.344,569.44 718.344,571.94 719.5,574.5C 719.566,576.266 718.732,577.266 717,577.5C 715.14,575.625 713.64,573.458 712.5,571C 711.552,570.517 710.552,570.351 709.5,570.5C 709.625,575.18 708.291,579.346 705.5,583C 698.629,583.021 691.962,581.855 685.5,579.5C 685.454,582.432 685.954,585.098 687,587.5C 685.66,588.868 684.326,590.201 683,591.5C 679.834,589.777 677.667,590.611 676.5,594C 678.203,598.484 676.537,600.651 671.5,600.5C 671.167,601.167 670.833,601.833 670.5,602.5C 671.38,604.429 672.38,606.263 673.5,608C 671.889,610.21 671.222,612.71 671.5,615.5C 669.856,615.286 668.356,615.62 667,616.5C 667.179,619.089 668.013,621.589 669.5,624C 667.042,625.558 665.042,627.558 663.5,630C 664.452,632.546 666.285,634.046 669,634.5C 669.333,636.833 669.667,639.167 670,641.5C 673.375,644.919 675.708,648.919 677,653.5C 677.496,655.035 677.33,656.535 676.5,658C 677.278,660.39 678.445,662.557 680,664.5C 680.667,670.5 681.333,676.5 682,682.5C 687.066,685.894 689.066,684.56 688,678.5C 685.048,676.266 683.881,673.266 684.5,669.5C 684.667,667.5 684.833,665.5 685,663.5C 685.414,663.043 685.914,662.709 686.5,662.5C 690.012,666.511 693.679,670.345 697.5,674C 696.196,674.804 695.529,675.971 695.5,677.5C 698.642,684.075 700.309,691.075 700.5,698.5C 702.483,697.018 704.316,695.351 706,693.5C 708.178,696.468 709.344,696.135 709.5,692.5C 720.246,692.244 726.413,686.91 728,676.5C 726.71,674.208 725.043,672.208 723,670.5C 722.667,667.167 722.333,663.833 722,660.5C 718.807,658.481 719.14,656.814 723,655.5C 723.49,654.207 723.657,652.873 723.5,651.5C 726.799,652.376 730.132,652.543 733.5,652C 735.556,649.556 738.056,647.723 741,646.5C 741.981,639.269 741.148,632.269 738.5,625.5C 738.49,621.989 739.99,620.656 743,621.5C 742.143,627.646 744.643,629.813 750.5,628C 753.07,623.052 757.07,621.385 762.5,623C 763.376,624.586 764.376,626.086 765.5,627.5C 767.325,618.774 768.992,618.607 770.5,627C 769.748,629.154 769.581,631.32 770,633.5C 775.617,643.275 778.784,653.942 779.5,665.5C 775.998,671.514 775.665,677.68 778.5,684C 777.132,686.568 777.466,688.901 779.5,691C 778.606,692.396 777.939,693.896 777.5,695.5C 779.32,697.839 780.487,700.506 781,703.5C 782.813,703.747 784.647,704.08 786.5,704.5C 784.266,708.282 783.933,712.282 785.5,716.5C 787.733,717.742 789.899,719.076 792,720.5C 792.612,725.439 792.112,730.273 790.5,735C 792.021,743.078 793.188,751.244 794,759.5C 795.635,763.709 796.802,768.042 797.5,772.5C 796.646,775.71 795.646,778.876 794.5,782C 796.127,786.746 798.127,791.246 800.5,795.5C 797.247,813.182 797.08,830.849 800,848.5C 801.029,851.39 802.195,854.224 803.5,857C 802.132,858.873 800.466,860.54 798.5,862C 797.5,862.667 796.5,862.667 795.5,862C 793.899,858.733 793.066,855.233 793,851.5C 792.167,850.667 791.333,849.833 790.5,849C 783.168,851.019 779.001,848.186 778,840.5C 773.491,837.512 771.325,838.845 771.5,844.5C 766.773,843.727 764.273,845.727 764,850.5C 758.657,853.398 758.157,857.065 762.5,861.5C 760.187,863.632 758.52,866.132 757.5,869C 758.413,872.992 760.246,876.492 763,879.5C 764.068,886.49 766.734,892.823 771,898.5C 772.868,908.658 771.202,908.992 766,899.5C 761.334,889.604 754.668,880.937 746,873.5C 744.755,867.61 744.088,861.61 744,855.5C 743.044,852.623 741.711,849.956 740,847.5C 737.82,846.654 736.32,845.154 735.5,843C 738.568,839.195 740.568,834.862 741.5,830C 741.079,827.815 740.579,825.649 740,823.5C 733.913,817.844 731.746,811.011 733.5,803C 732.158,795.559 731.325,788.059 731,780.5C 728.534,777.872 726.701,774.872 725.5,771.5C 726.618,769.429 727.618,767.262 728.5,765C 727.391,762.953 726.724,760.787 726.5,758.5C 727.552,758.649 728.552,758.483 729.5,758C 731.31,755.356 733.31,752.856 735.5,750.5C 738.984,749.633 742.317,748.466 745.5,747C 741.35,746.629 737.35,747.296 733.5,749C 730.667,751.833 727.833,754.667 725,757.5C 724.666,759.847 724.833,762.181 725.5,764.5C 724.5,764.5 723.5,764.5 722.5,764.5C 722.603,757.239 721.437,750.239 719,743.5C 710.941,734.116 702.941,724.783 695,715.5C 694.161,710.037 694.994,704.871 697.5,700C 696.004,699.493 694.837,699.993 694,701.5C 692.796,705.599 691.629,709.599 690.5,713.5C 689.127,713.343 687.793,713.51 686.5,714C 685.601,715.236 684.434,716.07 683,716.5C 681.433,715.144 679.6,714.477 677.5,714.5C 677.785,716.288 677.452,717.955 676.5,719.5C 674.5,718.5 672.5,717.5 670.5,716.5C 669.28,716.887 668.613,717.72 668.5,719C 670.357,720.689 672.024,722.522 673.5,724.5C 671.784,728.384 668.95,731.05 665,732.5C 660.737,731.536 657.07,729.536 654,726.5C 647.284,730.663 642.284,728.997 639,721.5C 635.849,718.593 632.516,715.926 629,713.5C 627.209,710.007 625.876,706.341 625,702.5C 623.828,699.297 621.661,697.797 618.5,698C 615.667,700.833 612.833,703.667 610,706.5C 609.383,707.449 609.549,708.282 610.5,709C 613.167,709.333 615.833,709.667 618.5,710C 619.333,710.833 620.167,711.667 621,712.5C 621.171,717.533 621.671,722.533 622.5,727.5C 624.122,725.561 625.956,725.228 628,726.5C 627.698,732.979 630.364,737.645 636,740.5C 636.167,741.333 636.333,742.167 636.5,743C 634.373,748.713 633.706,754.546 634.5,760.5C 634.297,762.208 633.464,763.541 632,764.5C 631.667,766.833 631.333,769.167 631,771.5C 625.806,777.072 620.473,782.405 615,787.5C 613.985,784.79 612.485,782.457 610.5,780.5C 612.869,772.094 616.202,764.261 620.5,757C 618.954,755.527 617.954,753.694 617.5,751.5C 620.701,743.482 619.701,735.982 614.5,729C 612.527,728.505 610.527,728.338 608.5,728.5C 608.799,726.027 609.799,723.86 611.5,722C 611.07,720.566 610.236,719.399 609,718.5C 608.71,720.952 608.044,723.285 607,725.5C 605.989,726.337 604.822,726.67 603.5,726.5C 603.351,727.552 603.517,728.552 604,729.5C 605.667,730.5 607.333,731.5 609,732.5C 608.685,738.221 610.351,743.221 614,747.5C 614.667,749.167 614.667,750.833 614,752.5C 608.609,759.559 603.609,766.893 599,774.5C 597.211,776.229 595.044,776.896 592.5,776.5C 592.081,773.675 593.081,771.509 595.5,770C 593.149,770.14 590.816,770.64 588.5,771.5C 589.921,777.113 587.921,779.28 582.5,778C 580.842,776.337 578.842,775.504 576.5,775.5C 576.5,774.167 576.5,772.833 576.5,771.5C 575.022,771.238 573.689,771.571 572.5,772.5C 573.752,774.001 574.752,775.668 575.5,777.5C 573.526,781.308 570.692,784.308 567,786.5C 565.247,789.005 563.747,791.671 562.5,794.5C 560.827,796.086 558.827,796.753 556.5,796.5C 555.443,791.884 556.943,788.551 561,786.5C 564.129,775.033 563.129,774.7 558,785.5C 556.5,784 555,782.5 553.5,781C 556.463,779.303 558.463,776.803 559.5,773.5C 554.776,773.956 551.776,776.789 550.5,782C 550.93,783.434 551.764,784.601 553,785.5C 553.667,786.833 553.667,788.167 553,789.5C 548.116,786.914 545.949,782.748 546.5,777C 546.725,774.472 547.058,771.972 547.5,769.5C 545.408,769.561 543.908,770.561 543,772.5C 542.667,772.167 542.333,771.833 542,771.5C 541.02,773.059 540.187,774.726 539.5,776.5C 538.833,775.167 538.167,773.833 537.5,772.5C 536.618,773.76 535.618,774.926 534.5,776C 539.986,781.799 541.819,788.632 540,796.5C 539.692,795.692 539.192,795.025 538.5,794.5C 537.585,796.918 536.085,798.918 534,800.5C 532.191,798.286 530.524,795.952 529,793.5C 529.218,791.413 529.051,789.413 528.5,787.5C 526.745,788.67 525.745,790.337 525.5,792.5C 526.523,794.003 527.523,795.503 528.5,797C 528.266,798.732 527.266,799.566 525.5,799.5C 524,799.547 523,798.881 522.5,797.5C 523.85,793.923 524.35,790.256 524,786.5C 523.632,787.91 522.799,788.91 521.5,789.5C 518.383,788.016 515.05,787.016 511.5,786.5C 514.726,782.985 515.726,778.985 514.5,774.5C 512.683,776.416 511.516,778.749 511,781.5C 510.107,782.711 509.274,782.711 508.5,781.5C 510.703,776.64 510.87,771.64 509,766.5C 507.89,764.963 506.39,764.297 504.5,764.5C 504.753,766.827 504.086,768.827 502.5,770.5C 505.313,773.247 505.979,776.414 504.5,780C 505.641,782.449 506.641,784.949 507.5,787.5C 505.999,792.74 504.666,792.74 503.5,787.5C 502.5,787.5 501.5,787.5 500.5,787.5C 502.321,793.352 502.821,799.352 502,805.5C 499.975,807.693 497.475,808.693 494.5,808.5C 493.564,805.37 492.23,802.37 490.5,799.5C 494.439,797.288 495.939,793.954 495,789.5C 493.417,787.089 492.417,784.422 492,781.5C 490.989,780.663 489.822,780.33 488.5,780.5C 488.34,782.199 488.506,783.866 489,785.5C 490.464,786.459 491.297,787.792 491.5,789.5C 490,791.833 488.5,794.167 487,796.5C 486.667,793.833 486.333,791.167 486,788.5C 483.126,787.468 481.626,785.468 481.5,782.5C 482.675,782.719 483.675,782.386 484.5,781.5C 482.275,779.438 481.942,777.105 483.5,774.5C 482.5,772.833 481.167,771.5 479.5,770.5C 478.943,772.718 478.943,775.051 479.5,777.5C 476.358,777.201 474.191,775.534 473,772.5C 472.721,776.459 471.887,780.292 470.5,784C 471.604,785.82 473.104,787.32 475,788.5C 475.622,793.591 473.789,797.591 469.5,800.5C 468.285,795.143 467.451,789.477 467,783.5C 465.818,781.656 464.651,779.823 463.5,778C 464.961,775.702 466.628,773.535 468.5,771.5C 467.289,770.126 466.289,768.626 465.5,767C 466.484,765.343 467.484,763.677 468.5,762C 466.879,759.834 466.045,757.334 466,754.5C 463.379,752.551 461.546,750.051 460.5,747C 461.289,745.374 462.289,743.874 463.5,742.5C 461.834,741.008 460.834,739.175 460.5,737C 461.167,734.667 461.833,732.333 462.5,730C 461.956,726.912 460.622,724.245 458.5,722C 460.503,719.018 460.503,715.851 458.5,712.5C 460.419,708.504 459.419,705.504 455.5,703.5C 458.139,701.527 460.473,699.194 462.5,696.5C 457.626,691.209 454.293,685.042 452.5,678C 452.914,673.923 454.081,670.09 456,666.5C 458.867,665.334 461.367,663.668 463.5,661.5C 461.183,659.684 459.016,657.684 457,655.5C 456.311,656.357 455.478,657.023 454.5,657.5C 452.833,656.167 451.167,654.833 449.5,653.5C 448.702,655.078 448.202,656.744 448,658.5C 444.955,654.937 441.288,652.27 437,650.5C 436.51,649.207 436.343,647.873 436.5,646.5C 438.677,646.586 440.677,647.253 442.5,648.5C 442.833,648.167 443.167,647.833 443.5,647.5C 442.289,646.126 441.289,644.626 440.5,643C 443.729,639.28 446.729,635.446 449.5,631.5C 448.774,627.69 447.441,627.524 445.5,631C 443.527,631.495 441.527,631.662 439.5,631.5C 439.785,629.712 439.452,628.045 438.5,626.5C 436.364,625.528 435.197,623.861 435,621.5C 433.604,619.473 431.938,619.14 430,620.5C 430.51,618.62 430.343,616.787 429.5,615C 429.167,614.833 428.833,614.667 428.5,614.5C 427.534,616.396 427.201,618.396 427.5,620.5C 426.5,620.5 425.5,620.5 424.5,620.5C 424.338,618.473 424.505,616.473 425,614.5C 426.772,611.526 428.938,608.859 431.5,606.5C 430.167,605.167 428.833,603.833 427.5,602.5C 429.045,601.548 430.712,601.215 432.5,601.5C 432.854,598.579 431.854,596.246 429.5,594.5C 433.837,594.894 438.17,594.394 442.5,593C 443.57,590.194 444.903,587.527 446.5,585C 445.868,582.21 445.702,579.377 446,576.5C 444.833,574 443,572.167 440.5,571C 443.319,570.932 445.486,569.766 447,567.5C 448.253,562.201 447.42,557.368 444.5,553C 438.015,553.387 432.015,552.053 426.5,549C 421.277,548.98 416.277,547.98 411.5,546C 404.088,541.259 397.255,535.759 391,529.5C 389.175,526.689 387.842,523.689 387,520.5C 384.965,518.76 383.131,516.926 381.5,515C 385.763,512.729 388.597,509.229 390,504.5C 392.297,501.02 395.464,499.02 399.5,498.5C 398.857,495.675 397.523,493.175 395.5,491C 397.184,488.294 399.517,487.794 402.5,489.5C 405.557,493.579 409.557,495.912 414.5,496.5C 414.439,494.408 413.439,492.908 411.5,492C 412.448,491.517 413.448,491.351 414.5,491.5C 414.357,486.883 416.024,486.216 419.5,489.5C 419.959,485.39 421.459,481.723 424,478.5C 424.469,475.056 423.969,471.722 422.5,468.5C 422.529,466.971 423.196,465.804 424.5,465C 426.913,464.516 429.246,464.85 431.5,466C 432.119,467.757 433.286,468.924 435,469.5C 436.963,468.375 438.796,467.041 440.5,465.5C 441.833,466.5 443.167,467.5 444.5,468.5C 445.548,467.617 446.715,466.95 448,466.5C 450.262,467.382 452.429,468.382 454.5,469.5C 456.055,469.278 457.389,468.611 458.5,467.5C 461.344,471.004 464.511,471.337 468,468.5C 469.035,465.204 470.535,462.204 472.5,459.5C 472.392,458.558 472.059,457.725 471.5,457C 468.556,456.03 465.556,455.196 462.5,454.5C 461.185,452.684 459.685,451.017 458,449.5C 458.463,447.474 459.296,445.474 460.5,443.5C 459.468,440.609 457.801,438.109 455.5,436C 454.668,435.312 454.002,435.479 453.5,436.5C 454.506,437.396 454.506,438.062 453.5,438.5C 452.452,437.617 451.285,436.95 450,436.5C 447.845,437.244 445.845,438.244 444,439.5C 440.439,436.269 436.273,434.435 431.5,434C 430.667,430.5 428.5,428.333 425,427.5C 426.016,421.16 423.182,417.66 416.5,417C 413.667,413.672 411.334,410.005 409.5,406C 406.551,406.6 403.551,407.433 400.5,408.5C 395.881,406.05 393.548,402.216 393.5,397C 393.988,395.416 394.988,394.249 396.5,393.5C 394.089,391.681 393.922,389.681 396,387.5C 399.004,385.326 401.837,382.992 404.5,380.5C 401.881,380.024 399.881,378.691 398.5,376.5C 399.668,374.783 401.335,374.116 403.5,374.5C 403.351,373.448 403.517,372.448 404,371.5C 407.235,368.429 411.068,367.095 415.5,367.5C 417.801,356.835 424.134,352.835 434.5,355.5C 434.812,352.112 433.479,349.612 430.5,348C 431.5,347.167 432.5,346.333 433.5,345.5C 433.291,344.914 432.957,344.414 432.5,344C 427.696,342.92 422.862,342.087 418,341.5C 417.904,335.016 420.071,329.349 424.5,324.5 Z"/></g>
<g><path style="opacity:1" fill="#109a4d" d="M 150.5,338.5 C 155.133,340.483 159.466,342.983 163.5,346C 161.167,349.667 158.833,353.333 156.5,357C 174.699,367.263 192.699,377.763 210.5,388.5C 208.316,392.881 205.65,396.881 202.5,400.5C 190.167,393.667 177.833,386.833 165.5,380C 161.548,379.088 157.881,379.755 154.5,382C 131.882,397.423 124.716,418.256 133,444.5C 136.276,452.161 141.276,453.494 148,448.5C 150.637,444.928 152.303,440.928 153,436.5C 153.667,430.5 153.667,424.5 153,418.5C 152.697,416.112 151.863,413.945 150.5,412C 155.489,411.501 160.489,411.334 165.5,411.5C 167.131,424.552 164.964,436.885 159,448.5C 149.594,459.124 139.094,460.291 127.5,452C 118.93,443.341 114.93,432.841 115.5,420.5C 116.388,407.725 120.888,396.391 129,386.5C 135.207,380.625 141.707,375.125 148.5,370C 144.296,367.736 140.296,365.236 136.5,362.5C 141.621,354.725 146.287,346.725 150.5,338.5 Z"/></g>
<g><path style="opacity:1" fill="#119a4d" d="M 98.5,453.5 C 102.414,455.027 106.414,456.36 110.5,457.5C 110.833,458.167 111.167,458.833 111.5,459.5C 110.205,462.716 109.538,466.049 109.5,469.5C 128.814,473.995 148.148,478.495 167.5,483C 168.059,483.725 168.392,484.558 168.5,485.5C 167.18,490.113 166.18,494.779 165.5,499.5C 147.448,496.456 129.615,492.456 112,487.5C 100.201,499.088 94.5341,513.088 95,529.5C 95.442,534.58 97.942,537.747 102.5,539C 105.948,529.985 109.782,521.151 114,512.5C 118.739,506.918 124.239,506.085 130.5,510C 140,519.171 144.833,530.338 145,543.5C 141.971,546.428 138.471,548.428 134.5,549.5C 134.295,538.927 130.629,529.761 123.5,522C 117.539,518.941 114.039,520.775 113,527.5C 112.667,539.167 112.333,550.833 112,562.5C 109.587,571.258 104.753,572.758 97.5,567C 79.8009,545.859 77.9676,523.359 92,499.5C 95.4527,494.379 99.2861,489.546 103.5,485C 99.8772,483.844 96.2106,482.844 92.5,482C 91.9415,481.275 91.6082,480.442 91.5,479.5C 93.8406,470.815 96.174,462.148 98.5,453.5 Z"/></g>
<g><path style="opacity:1" fill="#ec272a" d="M 133.5,700.5 C 136.834,710.827 139.168,721.493 140.5,732.5C 151.492,733.666 162.492,734.833 173.5,736C 164.416,741.626 155.25,747.126 146,752.5C 146.858,762.627 148.691,772.627 151.5,782.5C 151.167,783.167 150.833,783.833 150.5,784.5C 142.931,777.144 135.097,770.144 127,763.5C 117.609,768.112 108.442,773.112 99.5,778.5C 102.522,768.743 106.522,759.076 111.5,749.5C 103.677,741.845 95.677,734.345 87.5,727C 98.4526,728.179 109.453,728.846 120.5,729C 124.739,719.446 129.073,709.946 133.5,700.5 Z"/></g>
<g><path style="opacity:1" fill="#ec282b" d="M 1064.5,700.5 C 1069.79,709.585 1074.46,719.085 1078.5,729C 1089.51,728.406 1100.51,727.74 1111.5,727C 1103.32,734.345 1095.32,741.845 1087.5,749.5C 1092.48,759.076 1096.48,768.743 1099.5,778.5C 1090.56,773.112 1081.39,768.112 1072,763.5C 1063.45,770.13 1055.45,777.463 1048,785.5C 1049.92,774.551 1051.59,763.551 1053,752.5C 1043.75,747.126 1034.58,741.626 1025.5,736C 1036.5,734.722 1047.5,733.556 1058.5,732.5C 1060.12,721.752 1062.12,711.085 1064.5,700.5 Z"/></g>
<g><path style="opacity:1" fill="#fbe523" d="M 684.5,739.5 C 686.124,741.889 687.457,744.556 688.5,747.5C 689.814,748.313 690.981,749.313 692,750.5C 692.498,753.817 692.665,757.15 692.5,760.5C 690.179,760.229 688.179,760.896 686.5,762.5C 685.478,759.559 684.645,756.559 684,753.5C 682.667,752.833 681.333,752.167 680,751.5C 679.927,748.842 680.26,746.176 681,743.5C 683.071,742.897 684.238,741.564 684.5,739.5 Z"/></g>
<g><path style="opacity:1" fill="#fbe723" d="M 649.5,749.5 C 650.5,749.5 651.5,749.5 652.5,749.5C 651.756,754.702 652.923,759.369 656,763.5C 657.297,775.584 652.13,783.251 640.5,786.5C 640.338,784.473 640.505,782.473 641,780.5C 642.667,777.833 644.333,775.167 646,772.5C 646.333,766.167 646.667,759.833 647,753.5C 647.662,752.016 648.496,750.683 649.5,749.5 Z"/></g>
<g><path style="opacity:1" fill="#ec282a" d="M 204.5,851.5 C 205.693,851.97 206.36,852.97 206.5,854.5C 208.629,863.812 210.629,873.146 212.5,882.5C 223.432,884.433 234.432,885.933 245.5,887C 235.68,892.67 226.013,898.503 216.5,904.5C 219.182,914.736 221.015,925.069 222,935.5C 214.285,928.114 206.285,921.114 198,914.5C 188.52,919.573 179.187,924.907 170,930.5C 173.828,920.491 177.995,910.491 182.5,900.5C 175.399,892.567 167.732,885.067 159.5,878C 168.98,878.415 178.48,879.249 188,880.5C 189.5,880.167 191,879.833 192.5,879.5C 196.701,870.225 200.701,860.891 204.5,851.5 Z"/></g>
<g><path style="opacity:1" fill="#ec282b" d="M 992.5,851.5 C 998.08,860.152 1002.75,869.485 1006.5,879.5C 1008,879.833 1009.5,880.167 1011,880.5C 1020.5,879.222 1030,878.389 1039.5,878C 1031.32,885.011 1023.66,892.511 1016.5,900.5C 1021.01,910.491 1025.17,920.491 1029,930.5C 1019.81,924.907 1010.48,919.573 1001,914.5C 992.715,921.114 984.715,928.114 977,935.5C 977.985,925.069 979.818,914.736 982.5,904.5C 972.987,898.503 963.32,892.67 953.5,887C 964.565,885.894 975.565,884.394 986.5,882.5C 988.759,872.204 990.759,861.87 992.5,851.5 Z"/></g>
<g><path style="opacity:1" fill="#0f994d" d="M 656.5,1053.5 C 655.167,1053.5 653.833,1053.5 652.5,1053.5C 652.5,1055.17 652.5,1056.83 652.5,1058.5C 658.167,1058.5 663.833,1058.5 669.5,1058.5C 678.649,1058.37 686.982,1060.87 694.5,1066C 700.254,1074.47 699.587,1082.47 692.5,1090C 687.67,1093.16 682.503,1095.66 677,1097.5C 674.464,1093.6 672.297,1089.43 670.5,1085C 675.251,1084.81 679.917,1084.14 684.5,1083C 691.422,1077.53 691.089,1072.53 683.5,1068C 674.314,1065.76 665.314,1066.42 656.5,1070C 655.861,1072.41 655.527,1074.91 655.5,1077.5C 656.78,1090.47 657.447,1103.47 657.5,1116.5C 651.833,1117.08 646.167,1117.24 640.5,1117C 630.598,1106.71 618.598,1100.05 604.5,1097C 596.867,1095.84 589.2,1095 581.5,1094.5C 576.391,1094.46 571.391,1095.13 566.5,1096.5C 563.35,1092.88 560.684,1088.88 558.5,1084.5C 573.583,1079.06 588.916,1074.23 604.5,1070C 615.406,1066.69 626.406,1063.86 637.5,1061.5C 637.5,1059.83 637.5,1058.17 637.5,1056.5C 610.509,1057.55 583.509,1057.72 556.5,1057C 549.309,1056.37 542.143,1055.54 535,1054.5C 533.833,1054.83 532.667,1055.17 531.5,1055.5C 527.689,1075.08 524.356,1094.74 521.5,1114.5C 517.78,1114.44 514.114,1113.94 510.5,1113C 492.212,1087.9 467.545,1074.06 436.5,1071.5C 436.5,1065.83 436.5,1060.17 436.5,1054.5C 463.498,1055.23 490.498,1055.9 517.5,1056.5C 517.5,1054.83 517.5,1053.17 517.5,1051.5C 483.499,1045.75 450.499,1036.42 418.5,1023.5C 409.942,1042.03 401.109,1060.36 392,1078.5C 387.563,1077.04 383.73,1074.7 380.5,1071.5C 384.281,1063.61 387.781,1055.61 391,1047.5C 392.617,1035.77 387.45,1029.27 375.5,1028C 363.284,1027.98 351.118,1028.82 339,1030.5C 316.355,1031.36 306.521,1020.7 309.5,998.5C 312.089,997.795 314.756,997.795 317.5,998.5C 316.917,1014.72 324.25,1019.88 339.5,1014C 347.327,1007.55 348.494,1000.05 343,991.5C 337.191,985.602 331.191,979.935 325,974.5C 325.31,969.475 323.144,965.975 318.5,964C 320.979,960.353 323.979,957.187 327.5,954.5C 387.144,1002.13 455.144,1030.63 531.5,1040C 617.493,1051.33 700.493,1040.33 780.5,1007C 801.24,997.219 821.073,986.053 840,973.5C 843.093,976.181 845.593,979.347 847.5,983C 843.833,985.5 840.167,988 836.5,990.5C 835.417,991.365 835.251,992.365 836,993.5C 845.749,1010 855.749,1026.33 866,1042.5C 865.235,1046.56 862.568,1048.56 858,1048.5C 834.435,1044.67 811.268,1046.17 788.5,1053C 782.671,1055.41 777.338,1058.58 772.5,1062.5C 768.167,1059.33 763.833,1056.17 759.5,1053C 780.319,1036.43 801.319,1020.09 822.5,1004C 825.105,1002.07 825.105,1000.24 822.5,998.5C 792.035,1015.9 760.035,1029.73 726.5,1040C 732.896,1059.86 738.896,1079.86 744.5,1100C 744.245,1101.33 743.578,1102.33 742.5,1103C 738.414,1104.53 734.414,1105.36 730.5,1105.5C 724.298,1085.56 718.298,1065.56 712.5,1045.5C 711.5,1045.17 710.5,1044.83 709.5,1044.5C 692.034,1048.69 674.368,1051.69 656.5,1053.5 Z"/></g>
<g><path style="opacity:1" fill="#f7fcf9" d="M 353.5,990.5 C 370.466,999.9 387.633,1008.9 405,1017.5C 403.29,1023.61 400.956,1029.61 398,1035.5C 395.803,1027.32 391.303,1020.82 384.5,1016C 374.766,1011.17 364.433,1009.17 353.5,1010C 356.14,1003.51 356.14,997.006 353.5,990.5 Z"/></g>
<g><path style="opacity:1" fill="#fafdfb" d="M 829.5,1014.5 C 834.739,1020.77 839.406,1027.6 843.5,1035C 831.858,1034.81 820.191,1034.47 808.5,1034C 815.697,1027.63 822.697,1021.13 829.5,1014.5 Z"/></g>
<g><path style="opacity:1" fill="#66bf8e" d="M 656.5,1053.5 C 655.791,1054.4 654.791,1054.74 653.5,1054.5C 653.5,1055.5 653.5,1056.5 653.5,1057.5C 659.026,1057.18 664.36,1057.51 669.5,1058.5C 663.833,1058.5 658.167,1058.5 652.5,1058.5C 652.5,1056.83 652.5,1055.17 652.5,1053.5C 653.833,1053.5 655.167,1053.5 656.5,1053.5 Z"/></g>
<g><path style="opacity:1" fill="#1c9d53" d="M 812.5,1058.5 C 818.863,1058.41 825.196,1058.74 831.5,1059.5C 831.817,1062.57 831.484,1065.57 830.5,1068.5C 821.982,1066.8 813.648,1067.47 805.5,1070.5C 803.974,1068.25 802.974,1065.75 802.5,1063C 802.905,1062.05 803.572,1061.39 804.5,1061C 807.31,1060.22 809.977,1059.38 812.5,1058.5 Z"/></g>
<g><path style="opacity:1" fill="#fcfdfc" d="M 482.5,1073.5 C 492.992,1072.34 503.659,1072.17 514.5,1073C 513.096,1080.48 511.596,1087.98 510,1095.5C 502.323,1086.11 493.156,1078.77 482.5,1073.5 Z"/></g>
<g><path style="opacity:1" fill="#f7fcf9" d="M 634.5,1075.5 C 635.833,1075.5 637.167,1075.5 638.5,1075.5C 639.523,1084.82 640.023,1094.15 640,1103.5C 629.976,1095.4 618.809,1089.24 606.5,1085C 615.968,1081.9 625.301,1078.73 634.5,1075.5 Z"/></g>
<g><path style="opacity:1" fill="#179b50" d="M 457.5,1090.5 C 467.195,1092.51 475.195,1097.35 481.5,1105C 480.259,1107.56 478.926,1110.06 477.5,1112.5C 474.36,1110.53 471.36,1108.36 468.5,1106C 464.781,1103.64 460.781,1102.14 456.5,1101.5C 456.323,1097.77 456.656,1094.1 457.5,1090.5 Z"/></g>
</svg>
