<svg width="54" height="54" viewBox="0 0 54 54" fill="none" xmlns="http://www.w3.org/2000/svg">
<g clip-path="url(#clip0_0_7879)">
<path d="M11.3624 18.6639C11.3624 21.6204 13.7679 24.0258 16.7244 24.0258C18.1575 24.0258 19.5027 23.4675 20.5123 22.4539C21.5263 21.4356 22.0816 20.0778 22.0757 18.6305C22.0753 18.5418 22.0591 18.454 22.0275 18.3712L17.796 7.2418H23.6361C23.9229 8.54972 24.9545 9.58141 26.2625 9.86818V26.5797L18.8419 29.6404C18.5654 29.7543 18.3851 30.0239 18.3851 30.3229V32.1289C18.3851 32.5367 18.7156 32.8672 19.1233 32.8672H34.8785C35.2862 32.8672 35.6168 32.5367 35.6168 32.1289V30.3229C35.6168 30.0239 35.4364 29.7543 35.16 29.6404L27.7391 26.5796V9.86808C29.0471 9.58131 30.0787 8.54972 30.3656 7.2417H36.2107L31.9637 18.4013C31.9318 18.4852 31.9154 18.5742 31.9154 18.6639C31.9154 21.6204 34.3209 24.0258 37.2774 24.0258C38.7105 24.0258 40.0557 23.4675 41.0653 22.4539C42.0794 21.4356 42.6347 20.0778 42.6287 18.6305C42.6283 18.5418 42.6121 18.454 42.5805 18.3711L38.3488 7.2418H41.9009C42.3087 7.2418 42.6392 6.91126 42.6392 6.50352C42.6392 6.09578 42.3087 5.76524 41.9009 5.76524H30.3655C30.0787 4.45721 29.047 3.42563 27.7391 3.13886V1.6875C27.7391 1.27976 27.4086 0.949219 27.0008 0.949219C26.5931 0.949219 26.2625 1.27976 26.2625 1.6875V3.13875C24.9546 3.42552 23.9229 4.45711 23.6361 5.76513H12.1007C11.693 5.76513 11.3624 6.09567 11.3624 6.50341C11.3624 6.91116 11.693 7.2417 12.1007 7.2417H15.6578L11.4107 18.4012C11.3788 18.4852 11.3624 18.5742 11.3624 18.6639ZM37.2796 8.5841L40.8315 17.9256H33.7247L37.2796 8.5841ZM40.0189 21.4118C39.2884 22.1453 38.3148 22.5492 37.2773 22.5492C35.3874 22.5492 33.8089 21.1926 33.463 19.4021H41.0807C40.9358 20.1607 40.572 20.8566 40.0189 21.4118ZM34.1401 31.3906H19.8615V30.8169L27.0008 27.8723L34.1401 30.8169V31.3906ZM27.0008 4.53495C28.0863 4.53495 28.9695 5.41804 28.9695 6.50352C28.9695 7.589 28.0863 8.47209 27.0008 8.47209C25.9153 8.47209 25.0322 7.589 25.0322 6.50352C25.0322 5.41804 25.9153 4.53495 27.0008 4.53495ZM19.466 21.4118C18.7355 22.1453 17.7619 22.5492 16.7244 22.5492C14.8345 22.5492 13.256 21.1926 12.9101 19.4021H20.5278C20.3829 20.1607 20.0191 20.8566 19.466 21.4118ZM13.1716 17.9256L16.7268 8.5841L20.2785 17.9256H13.1716ZM22.7485 46.8681H22.6668L22.5673 46.4715C22.1081 44.6413 21.6332 42.7488 21.1938 40.8837C20.513 37.9923 19.8151 36.1471 15.9381 35.0473L12.1904 32.3553C11.5685 31.9087 10.8088 31.73 10.0489 31.8515L7.55279 25.9596C5.86245 21.9698 3.66606 22.4362 3.03325 22.6739C1.47473 23.2597 0.559899 25.3244 1.11393 27.0058L4.2955 36.6626C4.32904 36.7645 4.3631 36.8689 4.3978 36.9753C4.91745 38.57 5.56407 40.5546 7.05213 41.5773L11.3903 44.5588C11.8743 44.8914 12.1629 45.3124 12.2989 45.8837L12.5329 46.8676H12.0438C11.5673 46.8676 11.1207 47.0519 10.7861 47.3868C10.4516 47.7217 10.2677 48.1684 10.2681 48.6448V48.6449L10.2706 51.2764C10.2716 52.2545 11.0681 53.0503 12.0461 53.0503L22.7509 53.0508C23.2275 53.0508 23.674 52.8664 24.0086 52.5316C24.3431 52.1968 24.527 51.75 24.5266 51.2735L24.5242 48.6419C24.523 47.6638 23.7265 46.8681 22.7485 46.8681ZM13.7353 45.5417C13.5159 44.6191 13.0082 43.8789 12.2265 43.3418L7.8884 40.3601C6.81282 39.621 6.25215 37.9004 5.8017 36.5177C5.76647 36.4097 5.73198 36.3037 5.69791 36.2004L2.51634 26.5435C2.18507 25.5381 2.80923 24.3352 3.55268 24.0558C4.41214 23.733 5.39881 24.6601 6.1932 26.5353L8.69745 32.4466C8.49484 32.609 8.31322 32.7999 8.15787 33.0163C7.22848 34.3104 7.52505 36.1193 8.81905 37.0485L13.9408 40.7277C14.2722 40.9656 14.7333 40.8899 14.9713 40.5587C15.2091 40.2276 15.1335 39.7663 14.8023 39.5283L9.68041 35.8491C9.04771 35.3947 8.90269 34.5102 9.35726 33.8775C9.81172 33.2448 10.6963 33.0996 11.3289 33.5544L15.1829 36.3227C15.2541 36.3737 15.3339 36.4118 15.4182 36.4349C18.7054 37.3372 19.1451 38.6254 19.7566 41.2219C20.1983 43.0976 20.6746 44.9954 21.1352 46.8309L21.1444 46.8679L14.0506 46.8674L13.7353 45.5417ZM22.9639 51.4878C22.9247 51.5272 22.8558 51.5741 22.7508 51.5741L12.0461 51.5735C11.8813 51.5735 11.7473 51.4394 11.7472 51.2748L11.7446 48.6432C11.7445 48.5385 11.7914 48.4696 11.8307 48.4302C11.8701 48.3908 11.9388 48.3439 12.0438 48.3439L22.0873 48.3446C22.0884 48.3446 22.0893 48.3448 22.0903 48.3448C22.0917 48.3448 22.093 48.3446 22.0944 48.3446H22.7486C22.9134 48.3446 23.0474 48.4786 23.0476 48.6432L23.0501 51.2747C23.0502 51.3796 23.0032 51.4485 22.9639 51.4878ZM50.9684 22.6738C50.3356 22.4359 48.1392 21.9698 46.4488 25.9594L43.9533 31.8503C43.2263 31.7342 42.4551 31.8929 41.8113 32.3553L38.0635 35.0473C34.1867 36.147 33.4887 37.9923 32.8078 40.8837C32.3666 42.7566 31.8898 44.6567 31.4286 46.4945L31.3349 46.8681H31.2531C30.2751 46.8681 29.4786 47.6639 29.4776 48.6419L29.4751 51.2735C29.4747 51.7499 29.6586 52.1967 29.9932 52.5315C30.3277 52.8663 30.7743 53.0507 31.2508 53.0507L41.9555 53.05C42.9334 53.05 43.7301 52.2544 43.7311 51.2763L43.7335 48.6448C43.7341 48.1683 43.5501 47.7215 43.2156 47.3867C42.881 47.0518 42.4345 46.8674 41.958 46.8674H41.4688L41.7028 45.8834C41.8388 45.3121 42.1275 44.8911 42.6113 44.5585L46.9496 41.577C48.4378 40.5543 49.0845 38.5693 49.6041 36.9743C49.6387 36.8682 49.6726 36.7641 49.7061 36.6624L52.8877 27.0056C53.4417 25.3243 52.5269 23.2596 50.9684 22.6738ZM42.1709 48.4303C42.2101 48.4696 42.257 48.5385 42.2569 48.6432V48.6433L42.2544 51.2748C42.2542 51.4395 42.1202 51.5736 41.9554 51.5736L31.2507 51.5742C31.1458 51.5742 31.077 51.5273 31.0376 51.4879C30.9983 51.4486 30.9515 51.3797 30.9516 51.275L30.9541 48.6433C30.9542 48.4787 31.0883 48.3448 31.253 48.3448H31.9072C31.9086 48.3448 31.91 48.345 31.9113 48.345C31.9124 48.345 31.9133 48.3448 31.9143 48.3448L41.958 48.3441C42.0627 48.344 42.1316 48.391 42.1709 48.4303ZM51.4853 26.5436L48.3037 36.2005C48.2697 36.3036 48.2354 36.4093 48.2002 36.5171C47.7498 37.8999 47.189 39.621 46.1133 40.3603L41.7751 43.3418C40.9935 43.8789 40.4858 44.6191 40.2665 45.5417L39.951 46.8676L32.8572 46.8681L32.8607 46.8541C33.3232 45.0111 33.8014 43.1056 34.245 41.2222C34.8565 38.6257 35.2965 37.3375 38.5834 36.4352C38.6679 36.412 38.7476 36.3741 38.8187 36.323L42.6727 33.5547C43.3053 33.1 44.19 33.2451 44.6444 33.8778C44.8632 34.1824 44.9499 34.5562 44.8885 34.9303C44.8272 35.3043 44.6257 35.6308 44.3211 35.8496L39.1993 39.5287C38.8682 39.7667 38.7926 40.228 39.0304 40.5592C39.2684 40.8902 39.7296 40.9659 40.0608 40.7281L45.1826 37.049C45.8075 36.6001 46.2205 35.9326 46.3456 35.1693C46.4707 34.406 46.2924 33.6416 45.8435 33.0166C45.6865 32.798 45.5044 32.6079 45.3039 32.4474L47.8082 26.5357C48.6027 24.6605 49.5898 23.7334 50.4487 24.0563C51.1924 24.3354 51.8166 25.5382 51.4853 26.5436Z" fill="#005F5F"/>
</g>
<defs>
<clipPath id="clip0_0_7879">
<rect width="54" height="54" fill="white"/>
</clipPath>
</defs>
</svg>
