<svg width="44" height="52" viewBox="0 0 44 52" fill="none" xmlns="http://www.w3.org/2000/svg">
<path d="M25.0797 4.38299H25.9599C26.2962 4.38299 26.5689 4.11014 26.5689 3.77402C26.5689 3.43778 26.2962 3.16504 25.9599 3.16504H25.0797C24.7435 3.16504 24.4707 3.43778 24.4707 3.77402C24.4706 4.11014 24.7434 4.38299 25.0797 4.38299Z" fill="#005F5F"/>
<path d="M12.3238 4.38299H21.9647C22.301 4.38299 22.5737 4.11014 22.5737 3.77402C22.5737 3.43778 22.301 3.16504 21.9647 3.16504H12.3238C11.9877 3.16504 11.7148 3.43778 11.7148 3.77402C11.7148 4.11014 11.9877 4.38299 12.3238 4.38299Z" fill="#005F5F"/>
<path d="M19.1431 44.9277C17.9738 44.9277 17.0156 45.8777 17.0156 47.0552C17.0156 48.2246 17.9738 49.1746 19.1431 49.1746C20.3125 49.1746 21.2625 48.2246 21.2625 47.0552C21.2625 45.8778 20.3125 44.9277 19.1431 44.9277Z" fill="#005F5F"/>
<path d="M30.3919 28.3545H7.89023C7.55399 28.3545 7.28125 28.6272 7.28125 28.9635C7.28125 29.2996 7.55399 29.5724 7.89023 29.5724H30.3919C30.7281 29.5724 31.0009 29.2996 31.0009 28.9635C31.0009 28.6272 30.7281 28.3545 30.3919 28.3545Z" fill="#005F5F"/>
<path d="M30.3919 33.9395H7.89023C7.55399 33.9395 7.28125 34.2122 7.28125 34.5484C7.28125 34.8847 7.55399 35.1574 7.89023 35.1574H30.3919C30.7281 35.1574 31.0009 34.8847 31.0009 34.5484C31.0009 34.2122 30.7281 33.9395 30.3919 33.9395Z" fill="#005F5F"/>
<path d="M24.7207 39.5244H13.5621C13.2259 39.5244 12.9531 39.7973 12.9531 40.1334C12.9531 40.4696 13.226 40.7424 13.5621 40.7424H24.7208C25.057 40.7424 25.3298 40.4696 25.3298 40.1334C25.3298 39.7972 25.057 39.5244 24.7207 39.5244Z" fill="#005F5F"/>
<path d="M38.1688 6.57596V4.07487C38.1688 1.94736 36.4393 0.217773 34.3117 0.217773H3.97429C1.84677 0.217773 0.117188 1.94736 0.117188 4.07487V47.9246C0.117188 50.0521 1.84677 51.7817 3.97429 51.7817H34.3117C36.4393 51.7817 38.1688 50.0521 38.1688 47.9246V19.1706C41.3763 18.862 43.8856 16.158 43.8856 12.8693C43.8856 9.58055 41.3763 6.87633 38.1688 6.57596ZM36.9508 47.9246C36.9508 49.3781 35.7652 50.5637 34.3116 50.5637H3.97429C2.52071 50.5637 1.33514 49.3781 1.33514 47.9246V4.07487C1.33514 2.6213 2.52071 1.43573 3.97429 1.43573H34.3117C35.7653 1.43573 36.9509 2.6212 36.9509 4.07487V6.57596C33.7434 6.88445 31.226 9.58857 31.226 12.8692C31.226 16.1498 33.7434 18.8619 36.9509 19.1705L36.9508 47.9246ZM40.1258 11.7892L37.1051 14.8098C36.8696 15.0535 36.4799 15.0535 36.2443 14.8098L34.9938 13.5594C34.7502 13.3157 34.7502 12.9341 34.9938 12.6986C35.2293 12.455 35.6109 12.455 35.8545 12.6986L36.6747 13.5188L39.2651 10.9283C39.5006 10.6929 39.8903 10.6929 40.1258 10.9283C40.3613 11.1721 40.3613 11.5537 40.1258 11.7892Z" fill="#005F5F"/>
<path d="M19.1363 8.71191C17.2118 8.71191 15.6445 10.2873 15.6445 12.22C15.6445 14.1445 17.2118 15.7118 19.1363 15.7118C21.0689 15.7118 22.6443 14.1445 22.6443 12.22C22.6442 10.2874 21.0689 8.71191 19.1363 8.71191Z" fill="#005F5F"/>
<path d="M13.0527 23.9448C13.0527 24.2859 13.3289 24.5538 13.6617 24.5538H24.6241H24.6404C24.9733 24.5538 25.2493 24.2859 25.2493 23.9448C25.2493 23.8962 25.2412 23.8476 25.2331 23.7987C25.1681 19.7143 22.456 16.4092 19.1348 16.4092C15.7812 16.4092 13.0527 19.7956 13.0527 23.9448Z" fill="#005F5F"/>
</svg>
