<svg width="38" height="54" viewBox="0 0 38 54" fill="none" xmlns="http://www.w3.org/2000/svg">
<path fill-rule="evenodd" clip-rule="evenodd" d="M30.9178 35.7692C30.9178 33.2759 28.8543 31.2477 26.3182 31.2477C23.782 31.2477 21.7185 33.2759 21.7185 35.7692C21.7185 38.2623 23.7818 40.2907 26.3182 40.2907C28.8543 40.2906 30.9178 38.2623 30.9178 35.7692ZM32.5824 35.7692C32.5824 39.1646 29.7723 41.927 26.3182 41.927C22.8641 41.927 20.0539 39.1646 20.0539 35.7692C20.0539 32.3737 22.8639 29.6113 26.3182 29.6113C29.7722 29.6113 32.5824 32.3737 32.5824 35.7692ZM36.3298 36.2174C36.4927 41.9724 33.0799 45.4416 29.1281 49.4587C28.2765 50.3245 27.3959 51.2198 26.539 52.1547C26.4387 52.2642 26.3787 52.3204 26.3428 52.3484C26.3125 52.3249 26.2591 52.276 26.1736 52.1759C25.2421 51.0858 24.2461 50.033 23.2831 49.0147C19.6003 45.1213 16.1217 41.4437 16.3712 36.0218C16.4677 33.9231 17.1484 31.9956 18.2443 30.4075C18.2851 30.3614 18.3209 30.3112 18.3505 30.2568C20.1748 27.7104 23.0819 26.0753 26.347 26.0753C29.2455 26.0753 31.8451 27.3419 33.6649 29.3862C33.7204 29.4885 33.7973 29.5773 33.8896 29.6478C35.3514 31.4058 36.2581 33.6897 36.3298 36.2174ZM15.749 41.6784C15.0183 39.9585 14.6104 38.075 14.7082 35.9481C14.8167 33.5893 15.5692 31.4177 16.7837 29.611V25.1044L1.66479 16.5237V33.685L15.749 41.6784ZM10.8145 10.3862V14.2885H9.26641C8.80675 14.2885 8.43408 14.6549 8.43408 15.1067C8.43408 15.5586 8.80675 15.9249 9.26641 15.9249H11.6458C11.6462 15.9249 11.6464 15.925 11.6469 15.925C11.6473 15.925 11.6476 15.9249 11.648 15.9249H23.5844C23.5848 15.9249 23.5851 15.925 23.5855 15.925C23.5859 15.925 23.5862 15.9249 23.5866 15.9249H25.966C26.4257 15.9249 26.7983 15.5586 26.7983 15.1067C26.7983 14.6549 26.4257 14.2885 25.966 14.2885H24.4177V10.3862L32.7352 15.1066L17.6161 23.6873L2.49711 15.1066L10.8145 10.3862ZM12.4791 2.0714V14.2884H22.753V2.0714C22.753 1.83573 22.5503 1.63637 22.3105 1.63637H12.9217C12.6818 1.63637 12.4791 1.83573 12.4791 2.0714ZM33.5675 27.0402V16.5236L18.4484 25.1043V27.6327C20.5273 25.6461 23.3037 24.4389 26.3469 24.4389C28.996 24.4391 31.5177 25.3553 33.5675 27.0402ZM30.3248 50.5963C29.4832 51.452 28.6129 52.3366 27.7758 53.25C27.5357 53.512 27.0885 54 26.3468 54C25.5583 54 25.0794 53.4396 24.8989 53.2287C23.9944 52.1701 23.013 51.1326 22.0639 50.1293C20.3442 48.3112 18.5988 46.464 17.2379 44.4097C17.2253 44.4034 17.2121 44.3983 17.1998 44.3914L0.416164 34.8659C0.158668 34.7198 0 34.4497 0 34.1574V15.1066C0 15.1043 0.000386751 15.102 0.000515435 15.0996C0.000772803 15.0662 0.00283095 15.0327 0.00733489 14.9993C0.00759226 14.9974 0.00810741 14.9955 0.00836478 14.9936C0.0126114 14.9635 0.0189166 14.9335 0.0267663 14.9037C0.0289539 14.8956 0.0312704 14.8877 0.0335867 14.8796C0.0406644 14.8557 0.0489003 14.832 0.0582942 14.8084C0.0615113 14.8006 0.0643421 14.7926 0.0676879 14.7848C0.0805563 14.7552 0.0948407 14.726 0.11157 14.6974C0.128427 14.6686 0.147087 14.642 0.166775 14.6162C0.171794 14.6096 0.177069 14.6034 0.182217 14.5971C0.19856 14.5769 0.215675 14.5576 0.233562 14.5392C0.239095 14.5335 0.244628 14.5279 0.250419 14.5224C0.273325 14.5003 0.297261 14.4792 0.322354 14.4602C0.323255 14.4594 0.324027 14.4588 0.324927 14.4582C0.352466 14.4373 0.381291 14.4187 0.410888 14.4015C0.41269 14.4003 0.414363 14.3991 0.416164 14.3979L10.8144 8.49658V2.0714C10.8144 0.92925 11.7597 0 12.9216 0H22.3103C23.4722 0 24.4175 0.92925 24.4175 2.0714V8.49658L34.8159 14.3979C34.8179 14.3992 34.8196 14.4006 34.8216 14.4017C34.8511 14.4186 34.8794 14.4372 34.9067 14.4576C34.9084 14.4588 34.9097 14.4602 34.9113 14.4613C34.9357 14.48 34.9588 14.5004 34.9812 14.5219C34.9873 14.5277 34.993 14.5337 34.9988 14.5397C35.0163 14.5577 35.0331 14.5767 35.0492 14.5963C35.0546 14.603 35.0604 14.6096 35.0656 14.6164C35.0849 14.6418 35.1033 14.6683 35.1199 14.6963C35.1203 14.697 35.1207 14.6977 35.1211 14.6984C35.1377 14.7266 35.1516 14.7554 35.1643 14.7845C35.1678 14.7924 35.1706 14.8006 35.1739 14.8086C35.1833 14.8321 35.1915 14.8557 35.1984 14.8795C35.2009 14.8876 35.2032 14.8956 35.2054 14.9037C35.2131 14.9334 35.2195 14.9633 35.2237 14.9932C35.2239 14.9951 35.2244 14.9972 35.2247 14.9991C35.2292 15.0325 35.2312 15.066 35.2315 15.0994C35.2316 15.1018 35.232 15.1041 35.232 15.1063V28.708C36.9424 30.7948 37.9153 33.4055 37.9937 36.1716C38.1762 42.615 34.3625 46.4919 30.3248 50.5963ZM14.0457 9.62798L16.2074 11.7529C16.2367 11.7829 16.2685 11.8112 16.303 11.8369C16.3802 11.8952 16.4654 11.9385 16.5546 11.9665C16.6379 11.9931 16.7235 12.0057 16.8087 12.0057C16.8454 12.0057 16.8822 12.0033 16.9185 11.9987C17.0385 11.9832 17.1559 11.9419 17.2612 11.8748C17.3398 11.825 17.4107 11.7615 17.4699 11.6855C17.4961 11.6519 17.5194 11.6168 17.5396 11.5805L21.3187 5.14617C21.5485 4.75491 21.4121 4.25449 21.014 4.02857C20.6158 3.80239 20.1069 3.9366 19.8771 4.32799L16.6309 9.85491L15.2227 8.47065C14.8978 8.15112 14.3708 8.15124 14.0457 8.47065C13.7207 8.79031 13.7207 9.30844 14.0457 9.62798Z" fill="#005F5F"/>
</svg>
